<svg width="100" height="100" viewBox="-5 -5 110 110" fill="none" xmlns="http://www.w3.org/2000/svg">
    <path d="M0.683526 67.7762L10.8977 85.4468C11.5758 86.6189 12.6917 87.4737 13.9999 87.8232C15.3081 88.1728 16.7016 87.9885 17.874 87.3109L25.0035 83.1946C27.9656 85.5285 31.2393 87.4437 34.6814 88.8736V97.0348C34.6814 98.3893 35.2195 99.6883 36.1773 100.646C37.135 101.604 38.4341 102.142 39.7885 102.142H60.2169C61.5714 102.142 62.8704 101.604 63.8282 100.646C64.7859 99.6883 65.324 98.3893 65.324 97.0348V88.8736C68.7931 87.4293 72.0491 85.5187 75.002 83.1946L82.1315 87.3109C84.5675 88.7153 87.7033 87.8727 89.1078 85.4468L99.3219 67.7762C99.9941 66.6026 100.175 65.2109 99.8262 63.9043C99.4771 62.5977 98.6258 61.4819 97.4578 60.7999L90.4509 56.75C90.9984 52.9835 90.995 49.1574 90.4407 45.3918L97.4476 41.3419C99.8786 39.9375 100.721 36.7966 99.3117 34.3656L89.0975 16.6951C88.4194 15.523 87.3036 14.6682 85.9953 14.3186C84.6871 13.9691 83.2936 14.1534 82.1212 14.831L74.9917 18.9473C72.0426 16.6204 68.788 14.7095 65.3189 13.2682V5.10709C65.3189 3.75261 64.7808 2.4536 63.8231 1.49583C62.8653 0.538067 61.5663 0 60.2118 0H39.7834C38.429 0 37.1299 0.538067 36.1722 1.49583C35.2144 2.4536 34.6763 3.75261 34.6763 5.10709V13.2682C31.2072 14.7126 27.9513 16.6232 24.9984 18.9473L17.874 14.831C17.2937 14.4948 16.6527 14.2763 15.9879 14.188C15.323 14.0998 14.6473 14.1434 13.9994 14.3166C13.3514 14.4897 12.7439 14.7889 12.2117 15.197C11.6795 15.6052 11.233 16.1142 10.8977 16.6951L0.683526 34.3656C0.011371 35.5393 -0.169872 36.9309 0.179266 38.2376C0.528404 39.5442 1.37965 40.66 2.54762 41.3419L9.55455 45.3918C9.00367 49.1579 9.00367 52.984 9.55455 56.75L2.54762 60.7999C0.116639 62.2044 -0.726031 65.3453 0.683526 67.7762ZM49.9976 30.6426C61.2639 30.6426 70.426 39.8047 70.426 51.0709C70.426 62.3372 61.2639 71.4993 49.9976 71.4993C38.7314 71.4993 29.5692 62.3372 29.5692 51.0709C29.5692 39.8047 38.7314 30.6426 49.9976 30.6426Z" fill="#282828">
    <animateTransform attributeName="transform"
                          attributeType="XML"
                          type="rotate"
                          from="0 50 50"
                          to="360 50 50"
                          dur="6000ms"
                          repeatCount="indefinite"/>
    </path>
</svg>
