<svg width="100" height="100" viewBox="0 0 100 100" fill="none" xmlns="http://www.w3.org/2000/svg">
<path d="M94.4612 41.9372L84.8922 32.3718C84.7601 32.2392 84.603 32.134 84.4301 32.0622C84.2572 31.9904 84.0719 31.9535 83.8847 31.9535C83.6975 31.9535 83.5121 31.9904 83.3392 32.0622C83.1663 32.134 83.0093 32.2392 82.8771 32.3718L56.6933 58.5521L56.7455 58.6043L56.662 58.5811L53.0782 71.9541L53.0886 71.9564C52.9978 72.2184 52.9867 72.5013 53.0566 72.7695C53.1265 73.0377 53.2743 73.2793 53.4813 73.4636C53.6883 73.6479 53.9453 73.7668 54.2198 73.8052C54.4943 73.8436 54.774 73.7998 55.0237 73.6794L55.026 73.6898L68.2611 70.1431L68.253 70.1118L68.275 70.1338L94.46 43.95C94.7264 43.6829 94.876 43.3211 94.8763 42.9438C94.8765 42.5666 94.7272 42.2046 94.4612 41.9372V41.9372ZM57.4354 69.3604L59.5641 61.4229L65.3752 67.234L57.4354 69.3604Z" fill="#282828"/>
<path d="M75.9077 76.9351H67.2304H67.2292C66.8516 76.9357 66.4896 77.0861 66.2227 77.3532C65.9558 77.6204 65.8058 77.9825 65.8054 78.3601L65.8078 78.374V88.4786H17.5237V17.3152H23.3175V20.8735C23.3152 20.9118 23.3059 20.9466 23.3059 20.986C23.3059 22.1431 24.2451 23.0892 25.4091 23.0892L25.4254 23.0881V23.0973H57.9212C58.4785 23.0967 59.0128 22.8751 59.4069 22.481C59.801 22.0869 60.0227 21.5526 60.0233 20.9953C60.0233 20.9779 60.0186 20.9616 60.0186 20.9443V17.3152H65.8066V27.4232L65.8043 27.4372C65.804 27.6243 65.8406 27.8096 65.912 27.9826C65.9835 28.1555 66.0883 28.3127 66.2206 28.445C66.3528 28.5774 66.5099 28.6824 66.6828 28.7539C66.8557 28.8255 67.041 28.8623 67.2281 28.8621H75.9066C76.2841 28.8618 76.646 28.7117 76.913 28.4448C77.1799 28.1778 77.33 27.8158 77.3304 27.4383V12.0409H77.3083C77.3095 11.984 77.3257 11.9307 77.3257 11.8727C77.3257 10.2607 76.6856 8.71458 75.5462 7.57425C74.4067 6.43392 72.8611 5.79267 71.249 5.79144C71.2027 5.79144 71.1609 5.80419 71.1146 5.80535H54.2365V1.85859C54.2365 0.837121 53.4086 0.0115944 52.3895 0.00927546V0H30.9977V0.00695673C30.9803 0.00695673 30.9652 0.00231873 30.9478 0.00231873C29.9275 0.00231873 29.0997 0.829004 29.0997 1.85048L29.1031 1.88526V5.80419H12.101L12.0778 5.80187C10.4662 5.80372 8.92122 6.44481 7.78178 7.58447C6.64233 8.72414 6.00153 10.2693 6 11.8809C6 11.9353 6.01507 11.9852 6.01623 12.0397H6V93.8642H6.00348L6 93.8955C6.0003 94.6935 6.15779 95.4835 6.46347 96.2206C6.76914 96.9577 7.21702 97.6273 7.78152 98.1913C8.34602 98.7552 9.01609 99.2025 9.75345 99.5074C10.4908 99.8124 11.281 99.9692 12.079 99.9687C12.1694 99.9687 12.2541 99.9455 12.3445 99.942V99.9664H70.8966C71.0102 99.9722 71.118 100 71.2328 100C72.8435 99.9997 74.3882 99.3598 75.5273 98.2209C76.6663 97.0821 77.3066 95.5375 77.3072 93.9268C77.3072 93.9048 77.3014 93.8851 77.3014 93.863H77.3338V78.3589C77.3337 78.1718 77.2967 77.9865 77.2249 77.8137C77.1532 77.6409 77.0481 77.4839 76.9156 77.3517C76.7832 77.2194 76.626 77.1146 76.4531 77.0431C76.2802 76.9717 76.0948 76.935 75.9077 76.9351V76.9351Z" fill="#282828"/>
</svg>
