<svg width="90" height="100" viewBox="0 0 90 100" fill="none" xmlns="http://www.w3.org/2000/svg">
<path d="M30 45V55H20V45H30ZM50 45V55H40V45H50ZM70 45V55H60V45H70ZM80 10C82.6522 10 85.1957 11.0536 87.0711 12.9289C88.9464 14.8043 90 17.3478 90 20V90C90 92.6522 88.9464 95.1957 87.0711 97.0711C85.1957 98.9464 82.6522 100 80 100H10C7.34784 100 4.8043 98.9464 2.92893 97.0711C1.05357 95.1957 0 92.6522 0 90V20C0 17.3478 1.05357 14.8043 2.92893 12.9289C4.8043 11.0536 7.34784 10 10 10H15V0H25V10H65V0H75V10H80ZM80 90V35H10V90H80ZM30 65V75H20V65H30ZM50 65V75H40V65H50ZM70 65V75H60V65H70Z" fill="#282828"/>
</svg>
