<?xml version="1.0"?><svg fill="#000000" xmlns="http://www.w3.org/2000/svg" viewBox="0 0 24 24" width="100px" height="100px">    <path d="M 12 1 L 12 6 L 3 6 C 1.895 6 1 6.895 1 8 L 1 16 C 1 17.105 1.895 18 3 18 L 12 18 L 12 23 L 23 12 L 12 1 z M 14 5.828125 L 20.171875 12 L 14 18.171875 L 14 18 L 14 16 L 12 16 L 3 16 L 3 8 L 12 8 L 14 8 L 14 6 L 14 5.828125 z M 12.792969 8.7929688 L 9 12.585938 L 7.2070312 10.792969 L 5.7929688 12.207031 L 9 15.414062 L 14.207031 10.207031 L 12.792969 8.7929688 z"/></svg>