<?xml version="1.0" encoding="UTF-8"?>
<svg xmlns="http://www.w3.org/2000/svg" xmlns:xlink="http://www.w3.org/1999/xlink" width="100pt" height="100pt" viewBox="0 0 100 100" version="1.1">
<g id="surface3511390">
<path style=" stroke:none;fill-rule:nonzero;fill:rgb(0%,0%,0%);fill-opacity:1;" d="M 50 12.5 C 42.96875 12.5 38.234375 15.269531 33.984375 17.578125 C 29.738281 19.886719 25.878906 21.875 18.75 21.875 L 15.625 21.875 L 15.625 25 C 15.625 49.121094 23.78125 64.820312 32.03125 74.316406 C 40.285156 83.8125 48.828125 87.304688 48.828125 87.304688 L 50 87.695312 L 51.171875 87.304688 C 51.171875 87.304688 59.71875 83.886719 67.96875 74.414062 C 76.222656 64.941406 84.375 49.207031 84.375 25 L 84.375 21.875 L 81.25 21.875 C 74.15625 21.875 70.265625 19.886719 66.015625 17.578125 C 61.769531 15.269531 57.03125 12.5 50 12.5 Z M 50 18.75 C 55.46875 18.75 58.605469 20.667969 62.988281 23.046875 C 66.6875 25.0625 71.59375 26.988281 77.929688 27.636719 C 77.332031 48.777344 70.335938 62.21875 63.28125 70.3125 C 56.886719 77.648438 51.515625 80.089844 50 80.761719 C 48.472656 80.078125 43.113281 77.574219 36.71875 70.214844 C 29.664062 62.097656 22.667969 48.683594 22.070312 27.636719 C 28.429688 26.988281 33.3125 25.0625 37.011719 23.046875 C 41.394531 20.667969 44.53125 18.75 50 18.75 Z M 50 31.25 C 41.40625 31.25 34.375 38.28125 34.375 46.875 C 34.375 55.46875 41.40625 62.5 50 62.5 C 58.59375 62.5 65.625 55.46875 65.625 46.875 C 65.625 38.28125 58.59375 31.25 50 31.25 Z M 50 37.5 C 51.429688 37.5 52.796875 37.816406 54.003906 38.378906 L 41.503906 50.878906 C 40.941406 49.671875 40.625 48.304688 40.625 46.875 C 40.625 41.664062 44.789062 37.5 50 37.5 Z M 58.496094 42.871094 C 59.058594 44.078125 59.375 45.445312 59.375 46.875 C 59.375 52.085938 55.210938 56.25 50 56.25 C 48.570312 56.25 47.203125 55.933594 45.996094 55.371094 Z M 58.496094 42.871094 "/>
</g>
</svg>
