<?xml version="1.0" encoding="UTF-8"?>
<svg xmlns="http://www.w3.org/2000/svg" xmlns:xlink="http://www.w3.org/1999/xlink" width="100pt" height="100pt" viewBox="0 0 100 100" version="1.1">
<g id="surface3512032">
<path style=" stroke:none;fill-rule:nonzero;fill:rgb(0%,0%,0%);fill-opacity:1;" d="M 33.332031 12.5 L 33.332031 20.832031 L 37.5 20.832031 L 37.5 41.667969 L 14.296875 74.054688 C 13.191406 75.46875 12.5 77.230469 12.5 79.167969 C 12.5 83.769531 16.230469 87.5 20.832031 87.5 L 79.167969 87.5 C 83.769531 87.5 87.5 83.769531 87.5 79.167969 C 87.5 77.230469 86.808594 75.46875 85.703125 74.054688 L 62.5 41.667969 L 62.5 20.832031 L 66.667969 20.832031 L 66.667969 12.5 Z M 45.832031 20.832031 L 54.167969 20.832031 L 54.167969 37.5 L 45.832031 37.5 Z M 44.765625 45.832031 L 55.234375 45.832031 L 78.929688 78.90625 L 79.054688 79.027344 L 79.167969 79.167969 L 20.859375 79.199219 L 20.964844 79.050781 L 21.070312 78.90625 Z M 54.167969 54.167969 C 51.867188 54.167969 50 56.03125 50 58.332031 C 50 60.632812 51.867188 62.5 54.167969 62.5 C 56.46875 62.5 58.332031 60.632812 58.332031 58.332031 C 58.332031 56.03125 56.46875 54.167969 54.167969 54.167969 Z M 43.75 62.5 C 40.296875 62.5 37.5 65.296875 37.5 68.75 C 37.5 72.203125 40.296875 75 43.75 75 C 47.203125 75 50 72.203125 50 68.75 C 50 65.296875 47.203125 62.5 43.75 62.5 Z M 43.75 62.5 "/>
</g>
</svg>
