<?xml version="1.0" encoding="UTF-8"?>
<svg xmlns="http://www.w3.org/2000/svg" xmlns:xlink="http://www.w3.org/1999/xlink" width="100pt" height="100pt" viewBox="0 0 100 100" version="1.1">
<g id="surface11507085">
<path style=" stroke:none;fill-rule:nonzero;fill:rgb(0%,0%,0%);fill-opacity:1;" d="M 33.332031 8.332031 C 28.730469 8.332031 25 12.0625 25 16.667969 L 25 66.667969 C 25 71.269531 28.730469 75 33.332031 75 L 83.332031 75 C 87.9375 75 91.667969 71.269531 91.667969 66.667969 L 91.667969 16.667969 C 91.667969 12.0625 87.9375 8.332031 83.332031 8.332031 Z M 33.332031 16.667969 L 54.167969 16.667969 L 54.167969 50 L 43.75 43.75 L 33.332031 50 Z M 8.332031 25 L 8.332031 83.332031 C 8.332031 87.917969 12.082031 91.667969 16.667969 91.667969 L 75 91.667969 L 75 83.332031 L 16.667969 83.332031 L 16.667969 25 Z M 8.332031 25 "/>
</g>
</svg>
