<?xml version="1.0" encoding="UTF-8"?>
<svg xmlns="http://www.w3.org/2000/svg" xmlns:xlink="http://www.w3.org/1999/xlink" width="100pt" height="100pt" viewBox="0 0 100 100" version="1.1">
<g id="surface12258270">
<path style=" stroke:none;fill-rule:nonzero;fill:rgb(0%,0%,0%);fill-opacity:1;" d="M 76.726562 8.332031 C 75.660156 8.332031 74.589844 8.738281 73.777344 9.554688 L 66.667969 16.667969 L 83.332031 33.332031 L 90.445312 26.222656 C 92.074219 24.589844 92.074219 21.953125 90.445312 20.328125 L 79.671875 9.554688 C 78.855469 8.738281 77.792969 8.332031 76.726562 8.332031 Z M 60.417969 22.917969 L 20.832031 62.5 C 20.832031 62.5 25.019531 62.519531 27.082031 64.582031 C 29.144531 66.644531 29.101562 70.769531 29.101562 70.769531 C 29.101562 70.769531 33.351562 70.851562 35.417969 72.917969 C 37.484375 74.984375 37.5 79.167969 37.5 79.167969 L 77.082031 39.582031 Z M 15.292969 70.832031 L 12.5 87.5 L 29.167969 84.707031 Z M 15.292969 70.832031 "/>
</g>
</svg>
