<?xml version="1.0"?><svg fill="#000000" xmlns="http://www.w3.org/2000/svg" viewBox="0 0 50 50" width="100px" height="100px">    <path d="M 30.5 1.5859375 L 26.585938 5.5 L 30.5 9.4140625 L 34.414062 5.5 L 30.5 1.5859375 z M 18.5 4 C 18.224 4 18 4.224 18 4.5 L 18 9.5 C 18 9.776 18.224 10 18.5 10 L 19.5 10 C 21.807 10 22 11.936 22 13.75 C 22 14.664472 21.892692 15.756544 21.707031 16.917969 C 20.43139 16.337404 19.250281 16.007598 18.257812 16 L 18.230469 16 C 17.001469 16 16.269094 16.472141 15.871094 16.869141 C 15.603094 17.137141 15.414438 17.451922 15.273438 17.794922 L 15.259766 17.789062 L 4.2792969 45.650391 L 33.052734 35.796875 C 33.074734 35.788875 33.097141 35.781438 33.119141 35.773438 L 33.130859 35.769531 C 33.505859 35.628531 33.841859 35.419859 34.130859 35.130859 C 35.177265 34.084454 35.262522 32.294686 34.40625 30.050781 C 35.058563 30.018877 35.754088 30 36.5 30 C 39.564 30 42 30.72 42 31.75 L 42 32.5 C 42 32.776 42.224 33 42.5 33 L 46.5 33 C 46.635 33 46.764422 32.945609 46.857422 32.849609 C 46.952422 32.751609 47.004 32.620328 47 32.486328 C 47 32.485328 46.968703 31.396703 46.970703 31.220703 L 46.970703 31.21875 C 46.981703 29.89675 46.4495 28.655766 45.4375 27.634766 C 43.8495 26.033766 41.117516 25 38.478516 25 C 35.835111 25 33.802271 25.590403 32.314453 26.25 C 31.655525 25.297763 30.899358 24.346218 30.054688 23.40625 C 31.484156 22.968953 32.918991 22.652296 33.597656 22.503906 C 33.856656 22.447906 34.034781 22.407187 34.175781 22.367188 C 35.855781 21.896187 38.984375 20.609609 38.984375 17.599609 C 38.984375 17.021609 38.727313 16.451047 38.445312 15.998047 L 39.179688 15.998047 C 41.222687 15.998047 42.998047 14.904422 42.998047 12.857422 L 42.998047 11.199219 C 42.998047 11.075219 43.04375 9.9921875 44.59375 9.9921875 L 45.5 9.984375 C 45.776 9.984375 46 9.760375 46 9.484375 L 46 5.5019531 C 46 5.2259531 45.776 5.0019531 45.5 5.0019531 L 43.800781 5 L 43.794922 5 C 41.600922 5 39.971453 5.7518281 38.814453 7.2988281 C 38.054453 8.3148281 37.80375 10.054 37.71875 11 L 37.136719 11 C 34.199719 11 33.003906 13.057 33.003906 16 L 33.003906 17.726562 C 31.391403 18.219467 29.155741 19.10847 27.28125 20.652344 C 26.219501 19.725014 25.146764 18.922752 24.095703 18.246094 C 25.095521 16.385716 26 13.879394 26 10.875 C 26 7.563 23.942781 4 19.425781 4 L 18.5 4 z M 9.5 5.5859375 L 5.5859375 9.5 L 9.5 13.414062 L 13.414062 9.5 L 9.5 5.5859375 z M 44.5 17 L 42 19.5 L 44.5 22 L 46.998047 19.5 L 44.5 17 z M 5.5 18 L 3 20.5 L 5.5 23 L 7.9980469 20.5 L 5.5 18 z M 18.226562 18 L 18.242188 18 C 18.980048 18.005392 20.050031 18.326327 21.306641 18.949219 C 21.128774 19.709119 20.927984 20.475876 20.683594 21.240234 L 20.648438 21.351562 C 20.581437 21.567563 20.668375 21.801875 20.859375 21.921875 C 20.940375 21.974875 21.033 22 21.125 22 C 21.248 22 21.370797 21.954234 21.466797 21.865234 C 21.48452 21.848693 22.194287 21.159674 23.044922 19.945312 C 23.935248 20.518931 24.879809 21.2182 25.855469 22.0625 C 25.61839 22.348544 25.385244 22.641067 25.179688 22.960938 L 23.078125 26.230469 C 22.949125 26.431469 22.981344 26.694375 23.152344 26.859375 C 23.249344 26.951375 23.374 27 23.5 27 C 23.599 27 23.697203 26.970156 23.783203 26.910156 L 26.933594 24.730469 C 27.229699 24.52557 27.611792 24.335707 28.021484 24.152344 C 28.972115 25.155177 29.825451 26.177906 30.544922 27.195312 C 29.855324 27.650163 29.459761 28.015183 29.417969 28.056641 L 27.148438 30.300781 C 26.980438 30.466781 26.952078 30.726781 27.080078 30.925781 C 27.207078 31.124781 27.461687 31.206094 27.679688 31.121094 C 27.700576 31.113171 29.275912 30.539873 32.314453 30.216797 C 33.043505 31.857693 33.208227 33.22732 32.71875 33.716797 C 31.71975 34.713797 27.257875 33.165078 22.546875 28.455078 C 17.834875 23.744078 16.28125 19.283203 17.28125 18.283203 C 17.47125 18.095203 17.789563 18 18.226562 18 z M 37.5 37.585938 L 33.585938 41.5 L 37.5 45.414062 L 41.414062 41.5 L 37.5 37.585938 z"/></svg>