<?xml version="1.0" encoding="UTF-8"?>
<svg xmlns="http://www.w3.org/2000/svg" xmlns:xlink="http://www.w3.org/1999/xlink" width="100pt" height="100pt" viewBox="0 0 100 100" version="1.1">
<g id="surface11507353">
<path style=" stroke:none;fill-rule:nonzero;fill:rgb(0%,0%,0%);fill-opacity:1;" d="M 12.5 12.5 C 7.902344 12.5 4.167969 16.238281 4.167969 20.832031 L 4.167969 29.167969 C 4.167969 33.761719 7.902344 37.5 12.5 37.5 L 20.832031 37.5 L 20.832031 87.5 L 29.167969 87.5 C 29.167969 85.199219 31.035156 83.332031 33.332031 83.332031 C 35.632812 83.332031 37.5 85.199219 37.5 87.5 L 45.832031 87.5 C 45.832031 85.199219 47.699219 83.332031 50 83.332031 C 52.300781 83.332031 54.167969 85.199219 54.167969 87.5 L 62.5 87.5 C 62.5 85.199219 64.367188 83.332031 66.667969 83.332031 C 68.964844 83.332031 70.832031 85.199219 70.832031 87.5 L 79.167969 87.5 L 79.167969 37.5 L 87.5 37.5 C 92.097656 37.5 95.832031 33.761719 95.832031 29.167969 L 95.832031 20.832031 C 95.832031 16.238281 92.097656 12.5 87.5 12.5 Z M 29.167969 20.832031 L 70.832031 20.832031 L 70.832031 75 L 29.167969 75 Z M 37.5 29.167969 L 37.5 37.5 L 62.5 37.5 L 62.5 29.167969 Z M 37.5 45.832031 L 37.5 54.167969 L 54.167969 54.167969 L 54.167969 45.832031 Z M 37.5 45.832031 "/>
</g>
</svg>
