<?xml version="1.0" encoding="UTF-8"?>
<svg xmlns="http://www.w3.org/2000/svg" xmlns:xlink="http://www.w3.org/1999/xlink" width="100pt" height="100pt" viewBox="0 0 100 100" version="1.1">
<g id="surface11504269">
<path style=" stroke:none;fill-rule:nonzero;fill:rgb(0%,0%,0%);fill-opacity:1;" d="M 25 8.332031 C 20.417969 8.332031 16.667969 12.082031 16.667969 16.667969 L 16.667969 83.332031 C 16.667969 87.917969 20.417969 91.667969 25 91.667969 L 52.847656 91.667969 C 51.042969 87.875 50 83.644531 50 79.167969 C 50 63.058594 63.058594 50 79.167969 50 C 80.582031 50 81.972656 50.136719 83.332031 50.332031 L 83.332031 33.332031 L 58.332031 8.332031 Z M 54.167969 14.582031 L 77.082031 37.5 L 54.167969 37.5 Z M 79.167969 58.332031 C 67.710938 58.332031 58.332031 67.710938 58.332031 79.167969 C 58.332031 90.625 67.710938 100 79.167969 100 C 90.625 100 100 90.625 100 79.167969 C 100 67.710938 90.625 58.332031 79.167969 58.332031 Z M 79.167969 66.667969 L 79.167969 79.167969 L 91.667969 79.167969 C 91.667969 86.121094 86.121094 91.667969 79.167969 91.667969 C 72.214844 91.667969 66.667969 86.121094 66.667969 79.167969 C 66.667969 72.214844 72.214844 66.667969 79.167969 66.667969 Z M 79.167969 66.667969 "/>
</g>
</svg>
