<?xml version="1.0" encoding="UTF-8"?>
<svg xmlns="http://www.w3.org/2000/svg" xmlns:xlink="http://www.w3.org/1999/xlink" width="100pt" height="100pt" viewBox="0 0 100 100" version="1.1">
<g id="surface11504041">
<path style=" stroke:none;fill-rule:nonzero;fill:rgb(0%,0%,0%);fill-opacity:1;" d="M 43.332031 13.332031 C 38.617188 13.332031 34.679688 16.601562 33.605469 20.988281 C 32.941406 23.722656 30.25 23.0625 28.359375 23.542969 C 26.914062 23.910156 25.683594 24.792969 24.785156 25.9375 C 37.257812 30.0625 46.945312 37.691406 47.492188 38.132812 L 54.003906 43.332031 L 59.210938 43.332031 L 60.703125 40.351562 C 60.972656 39.8125 66.164062 29.804688 78.15625 25.402344 C 77.265625 24.46875 76.109375 23.78125 74.816406 23.496094 C 73.664062 23.238281 72.554688 23.292969 71.542969 23.582031 C 70.558594 23.859375 69.488281 23.410156 69.0625 22.480469 C 67.480469 19.050781 64.027344 16.667969 60 16.667969 C 58.539062 16.667969 57.15625 16.980469 55.910156 17.550781 C 54.074219 18.390625 51.96875 17.964844 50.59375 16.492188 C 48.777344 14.546875 46.203125 13.332031 43.332031 13.332031 Z M 50 23.332031 C 51.839844 23.332031 53.332031 24.828125 53.332031 26.667969 C 53.332031 28.507812 51.839844 30 50 30 C 48.160156 30 46.667969 28.507812 46.667969 26.667969 C 46.667969 24.828125 48.160156 23.332031 50 23.332031 Z M 10 30 C 10 40 13.332031 43.332031 13.332031 43.332031 L 43.332031 43.332031 C 43.332031 43.332031 26.667969 30 10 30 Z M 90 30 C 73.332031 30 66.667969 43.332031 66.667969 43.332031 L 86.667969 43.332031 C 86.667969 43.332031 90 40 90 30 Z M 13.332031 50 C 12.132812 49.980469 11.011719 50.605469 10.402344 51.640625 C 9.792969 52.675781 9.789062 53.960938 10.390625 55 C 10.992188 56.042969 12.105469 56.679688 13.308594 56.667969 C 13.308594 68.039062 20.441406 77.722656 30.46875 81.554688 C 29.816406 82.589844 29.785156 83.898438 30.382812 84.964844 C 30.980469 86.027344 32.113281 86.683594 33.332031 86.667969 L 66.667969 86.667969 C 67.890625 86.679688 69.023438 86.023438 69.617188 84.953125 C 70.214844 83.886719 70.175781 82.574219 69.519531 81.542969 C 79.523438 77.699219 86.640625 68.023438 86.640625 56.667969 L 86.667969 56.667969 C 87.867188 56.683594 88.988281 56.050781 89.59375 55.015625 C 90.199219 53.976562 90.199219 52.691406 89.59375 51.652344 C 88.988281 50.613281 87.867188 49.984375 86.667969 50 Z M 13.332031 50 "/>
</g>
</svg>
