<?xml version="1.0" encoding="UTF-8"?>
<svg xmlns="http://www.w3.org/2000/svg" xmlns:xlink="http://www.w3.org/1999/xlink" width="100pt" height="100pt" viewBox="0 0 100 100" version="1.1">
<g id="surface12260276">
<path style=" stroke:none;fill-rule:nonzero;fill:rgb(0%,0%,0%);fill-opacity:1;" d="M 50 10 C 27.949219 10 10 27.949219 10 50 C 10 72.050781 27.949219 90 50 90 C 72.050781 90 90 72.050781 90 50 C 90 27.949219 72.050781 10 50 10 Z M 50 16.667969 C 68.449219 16.667969 83.332031 31.550781 83.332031 50 C 83.332031 68.449219 68.449219 83.332031 50 83.332031 C 31.550781 83.332031 16.667969 68.449219 16.667969 50 C 16.667969 31.550781 31.550781 16.667969 50 16.667969 Z M 50 23.332031 C 35.273438 23.332031 23.332031 35.273438 23.332031 50 C 23.332031 64.726562 35.273438 76.667969 50 76.667969 C 64.726562 76.667969 76.667969 64.726562 76.667969 50 C 76.667969 35.273438 64.726562 23.332031 50 23.332031 Z M 50 33.332031 C 50.851562 33.332031 51.707031 33.660156 52.355469 34.308594 L 62.355469 44.308594 C 63.660156 45.613281 63.660156 47.71875 62.355469 49.023438 C 61.054688 50.328125 58.945312 50.328125 57.644531 49.023438 L 53.332031 44.714844 L 53.332031 63.332031 C 53.332031 65.171875 51.839844 66.667969 50 66.667969 C 48.160156 66.667969 46.667969 65.171875 46.667969 63.332031 L 46.667969 44.714844 L 42.355469 49.023438 C 41.054688 50.328125 38.945312 50.328125 37.644531 49.023438 C 36.339844 47.71875 36.339844 45.613281 37.644531 44.308594 L 47.644531 34.308594 C 48.292969 33.660156 49.148438 33.332031 50 33.332031 Z M 50 33.332031 "/>
</g>
</svg>
