<svg viewBox="0 0 16 16" fill="none" xmlns="http://www.w3.org/2000/svg">
<path class="moon" fill-rule="evenodd" clip-rule="evenodd" d="M16 12.1931C15.2436 12.396 14.4449 12.5047 13.6193 12.5047C8.83271 12.5047 4.95245 8.85319 4.95245 4.34888C4.95245 2.75009 5.44132 1.25875 6.28605 0C2.65709 0.973501 0 4.11686 0 7.84422C0 12.3485 3.88026 16 8.6668 16C11.7544 16 14.4648 14.4806 16 12.1931Z" fill="white"/>
<path class="sun" d="M1.85455 13.1434L2.88 14.1735L4.18909 12.8658L3.15636 11.8283L1.85455 13.1434ZM7.27273 16H8.72727V13.8447H7.27273V16ZM8 3.61644C6.84269 3.61644 5.73278 4.07828 4.91444 4.90035C4.0961 5.72243 3.63636 6.83741 3.63636 8C3.63636 9.16259 4.0961 10.2776 4.91444 11.0996C5.73278 11.9217 6.84269 12.3836 8 12.3836C9.15731 12.3836 10.2672 11.9217 11.0856 11.0996C11.9039 10.2776 12.3636 9.16259 12.3636 8C12.3636 5.57443 10.4073 3.61644 8 3.61644ZM13.8182 8.73059H16V7.26941H13.8182V8.73059ZM11.8109 12.8658L13.12 14.1735L14.1455 13.1434L12.8436 11.8283L11.8109 12.8658ZM14.1455 2.85662L13.12 1.82648L11.8109 3.13425L12.8436 4.17169L14.1455 2.85662ZM8.72727 0H7.27273V2.15525H8.72727V0ZM2.18182 7.26941H0V8.73059H2.18182V7.26941ZM4.18909 3.13425L2.88 1.82648L1.85455 2.85662L3.15636 4.17169L4.18909 3.13425Z" fill="#282828"/>
</svg>
