<svg id="e9mm576cyd71" xmlns="http://www.w3.org/2000/svg" xmlns:xlink="http://www.w3.org/1999/xlink" viewBox="0 0 746 439" shape-rendering="geometricPrecision" text-rendering="geometricPrecision"><style><![CDATA[#e9mm576cyd75_to {animation: e9mm576cyd75_to__to 3000ms linear infinite normal forwards}@keyframes e9mm576cyd75_to__to { 0% {transform: translate(51.706800px,40.287911px);animation-timing-function: cubic-bezier(0.230000,1,0.320000,1)} 33.333333% {transform: translate(51.706800px,21.878916px);animation-timing-function: cubic-bezier(0.230000,1,0.320000,1)} 66.666667% {transform: translate(51.706800px,40.287911px)} 100% {transform: translate(51.706800px,40.287911px)} }]]></style><defs><clipPath id="e9mm576cyd72"><rect id="e9mm576cyd73" width="418.037000" height="418.037000" rx="0" ry="0" transform="matrix(0.86604400000000 0.49996700000000 -0.86604400000000 0.49996700000000 373 0.68286100000000)" fill="rgb(255,255,255)" stroke="none" stroke-width="1"/></clipPath></defs><path id="e9mm576cyd74" d="M628.043511,174.856636L616.027101,167.920000L610.877720,170.892717C608.033394,172.534619,605.728340,173.865433,605.728340,173.865433L612.594478,177.829353L310.485299,352.238242L243.490761,313.562618L238.341381,316.535335C235.497054,318.177237,233.192000,319.508051,233.192000,319.508051L310.485299,364.130000L315.634680,361.157283L633.192000,177.829353L628.043511,174.856636Z" transform="matrix(1 0 0 1 31.63682599999993 23.89348916999997)" fill="rgb(40,40,40)" stroke="none" stroke-width="1"/><g id="e9mm576cyd75_to" transform="translate(51.706800,40.287911)"><path id="e9mm576cyd75" d="M333.993485,292.357208C334.177105,292.355426,334.361616,292.351860,334.544345,292.342055C334.609414,292.337598,334.673592,292.329576,334.738661,292.326011C334.909802,292.313531,335.080943,292.300161,335.249410,292.281442C335.301109,292.276094,335.351025,292.266289,335.401832,292.260049C335.582778,292.237765,335.764615,292.212807,335.942887,292.181609C335.974976,292.175369,336.006174,292.168238,336.038262,292.162890C336.233470,292.127235,336.426004,292.088015,336.614972,292.043446C336.634582,292.038990,336.651517,292.033641,336.669345,292.028293C336.869009,291.981051,337.065108,291.927568,337.257641,291.867847C337.278143,291.862498,337.295970,291.854476,337.315580,291.848237C337.503657,291.789406,337.688168,291.727010,337.866440,291.657484C337.915464,291.638765,337.961815,291.616481,338.011731,291.596870C338.156131,291.538040,338.302314,291.479210,338.440475,291.413248C338.627660,291.325003,338.807715,291.231409,338.980638,291.130684L587.878362,147.440165L582.728981,144.467449L350.999722,10.688600L28.293200,196.989604L191.362684,291.130684C191.362684,291.130684,191.715662,291.324111,191.902847,291.412357C192.045465,291.479210,192.194322,291.539823,192.343178,291.600436C192.387746,291.619155,192.430532,291.639656,192.475991,291.657484C192.655154,291.727010,192.841448,291.789406,193.028634,291.848237C193.048243,291.854476,193.066071,291.861607,193.085680,291.867847C193.277323,291.926677,193.472530,291.979268,193.670412,292.027402C193.690022,292.032750,193.708740,292.038098,193.729242,292.043446C193.918210,292.088015,194.111635,292.127235,194.305951,292.162890C194.338040,292.169130,194.369237,292.176260,194.400435,292.181609C194.581381,292.212807,194.764109,292.238656,194.946838,292.260941C194.996754,292.267180,195.044887,292.276094,195.093912,292.281442C195.265053,292.301052,195.437085,292.313531,195.610009,292.326011C195.674187,292.330467,195.737473,292.338490,195.801651,292.342055C195.984380,292.351860,196.168000,292.355426,196.352511,292.357208C196.405993,292.358991,196.457691,292.362557,196.512064,292.362557L333.833932,292.362557C333.888305,292.362557,333.940003,292.358100,333.993485,292.357208ZM350.999722,22.579823L567.281730,147.441057L333.834823,282.211643L265.173444,242.573340L196.512064,282.211643L48.890990,196.989604L350.999722,22.579823ZM265.172552,254.465098L316.252768,283.953378L214.093228,283.953378L265.172552,254.465098Z" transform="translate(0,0)" fill="rgb(40,40,40)" stroke="none" stroke-width="1"/></g></svg>