<svg fill="#000000" xmlns="http://www.w3.org/2000/svg" viewBox="0 0 24 24" width="100px" height="100px"><path d="M 9.5683594 1.3691406 L 9.1132812 2.4023438 L 8.4082031 3.9960938 L 5.5488281 4.2558594 L 6.1523438 7.0625 L 3.9921875 8.953125 L 6.1308594 10.869141 L 5.4941406 13.669922 L 7 13.824219 L 7 22.951172 L 12 20.451172 L 17 22.951172 L 17 13.875 L 18.451172 13.744141 L 17.847656 10.9375 L 20.007812 9.046875 L 17.869141 7.1308594 L 18.505859 4.3300781 L 15.648438 4.0371094 L 14.517578 1.3984375 L 12.035156 2.8398438 L 9.5683594 1.3691406 z M 10.484375 4.2441406 L 12.021484 5.1601562 L 13.570312 4.2617188 L 14.275391 5.90625 L 16.056641 6.0898438 L 15.658203 7.8339844 L 16.990234 9.0292969 L 15.644531 10.207031 L 16.021484 11.957031 L 14.238281 12.119141 L 13.515625 13.755859 L 11.978516 12.839844 L 10.429688 13.738281 L 9.7246094 12.09375 L 7.9433594 11.910156 L 8.3417969 10.166016 L 7.0097656 8.9707031 L 8.3554688 7.7929688 L 7.9785156 6.0429688 L 9.7617188 5.8808594 L 10.484375 4.2441406 z M 11.964844 15.160156 L 14.431641 16.630859 L 15 15.34375 L 15 19.714844 L 12 18.214844 L 9 19.714844 L 9 15.476562 L 9.4824219 16.601562 L 11.964844 15.160156 z"/></svg>