<svg width="100" height="100" viewBox="0 0 100 100" fill="none" xmlns="http://www.w3.org/2000/svg">
<path d="M96.9402 2.02509C96.6502 1.30264 96.0927 0.719851 95.3839 0.397945C94.6751 0.0760393 93.8694 0.0398065 93.1345 0.296784C92.3997 0.553762 91.7922 1.08416 91.4384 1.77765C91.0847 2.47114 91.0119 3.27431 91.2352 4.02009C95.8802 17.3701 86.6602 27.3401 79.6302 32.6801L76.7902 28.6101C75.8352 27.2451 73.7002 26.1101 72.0402 26.0901L56.1002 26.1601C54.153 26.2189 52.2579 26.8028 50.6152 27.8501L3.64524 60.7851C2.55271 61.5539 1.80933 62.7243 1.57787 64.04C1.3464 65.3557 1.6457 66.7096 2.41024 67.8051L23.7552 98.3451C25.3552 100.62 27.9102 100.345 30.1902 98.7551L77.1602 65.8151C78.5102 64.8601 80.0702 62.8001 80.6202 61.2251L85.6102 45.5001C86.1602 43.9301 85.8252 41.5351 84.8702 40.1701L83.1402 37.6901C92.5802 30.4551 102.38 17.6701 96.9402 2.02509V2.02509ZM75.0852 48.8151C74.2199 49.4208 73.2438 49.8501 72.2125 50.0784C71.1812 50.3067 70.1151 50.3295 69.075 50.1457C68.0349 49.9618 67.0412 49.5748 66.1507 49.0067C65.2603 48.4387 64.4904 47.7007 63.8852 46.8351C62.6599 45.0834 62.1796 42.917 62.5499 40.8116C62.9202 38.7061 64.1107 36.8336 65.8602 35.6051C67.2318 34.6442 68.8693 34.1358 70.5439 34.151C72.2184 34.1663 73.8464 34.7044 75.2002 35.6901C73.8402 36.5101 72.9052 36.9901 72.7302 37.0651C72.1104 37.3606 71.6094 37.8579 71.3092 38.4755C71.009 39.093 70.9275 39.7942 71.078 40.4642C71.2285 41.1341 71.6021 41.7331 72.1375 42.163C72.673 42.5928 73.3386 42.828 74.0252 42.8301C74.4552 42.8301 74.8952 42.7301 75.3102 42.5351C76.2802 42.0751 77.3202 41.5301 78.4052 40.8851C78.6548 42.3854 78.4756 43.9257 77.8883 45.3286C77.3009 46.7316 76.3293 47.9401 75.0852 48.8151V48.8151Z" fill="#282828"/>
</svg>
