<svg width="100" height="100" viewBox="0 0 100 100" fill="none" xmlns="http://www.w3.org/2000/svg">
<path d="M82.9545 39.0483C82.9205 39.0483 82.8966 39.055 82.8693 39.0583C82.4548 33.4664 79.8312 28.2504 75.552 24.511C71.2729 20.7716 65.673 18.8013 59.934 19.0159C54.195 19.2305 48.7658 21.6132 44.7923 25.6612C40.8187 29.7092 38.6114 35.1058 38.6364 40.7123C38.6364 42.4562 38.875 44.1401 39.2705 45.7708C39.0557 45.7542 38.8545 45.7042 38.6364 45.7042C31.1023 45.7042 25 51.6613 25 59.0161C25 63.0163 26.8409 66.5606 29.7045 69H93.0898C95.228 67.4635 96.9672 65.4587 98.1673 63.1467C99.3675 60.8347 99.9952 58.28 100 55.6881C100 46.503 92.3636 39.0483 82.9545 39.0483Z" fill="#282828"/>
<path d="M71.5441 47.4722C71.5441 46.0139 72.0588 44.5556 72.0588 42.6111C72.0588 31.9167 62.7941 23.1667 51.4706 23.1667C43.2353 23.1667 36.5441 27.5417 32.9412 33.8611C31.9118 33.375 29.8529 32.8889 28.3088 32.8889C21.1029 32.8889 15.4412 38.2361 15.4412 45.0417C15.4412 46.0139 15.4412 46.9861 15.9559 47.4722C6.69118 48.9306 0 55.7361 0 64.4861C0 73.7222 8.23529 81.5 18.0147 81.5H69.4853C79.2647 81.5 87.5 73.7222 87.5 64.4861C87.5 55.7361 80.8088 48.4445 71.5441 47.4722Z" fill="#666666"/>
</svg>
