<svg width="100" height="100" viewBox="0 0 100 100" fill="none" xmlns="http://www.w3.org/2000/svg">
<path d="M50 50L12.7 35.1L15 90H5L7.4 32.95L0 30L50 10L100 30L50 50ZM50 25C47.25 25 45 26.1 45 27.5C45 28.9 47.25 30 50 30C52.75 30 55 28.9 55 27.5C55 26.1 52.75 25 50 25ZM50 55L77.85 43.85C81.4 48.55 83.85 54.2 84.65 60.35C83.15 60.15 81.6 60 80 60C67.25 60 56.1 66.85 50 77.05C46.9037 71.8538 42.5112 67.5506 37.2524 64.5619C31.9936 61.5731 26.0488 60.0012 20 60C18.4 60 16.85 60.15 15.35 60.35C16.15 54.2 18.6 48.55 22.15 43.85L50 55Z" fill="#282828"/>
</svg>
