<svg width="100" height="100" viewBox="0 0 100 100" fill="none" xmlns="http://www.w3.org/2000/svg">
<path d="M74.6094 26.5625C66.627 26.5625 60.2617 30.5723 56.3281 33.9375L56.1895 34.0566L53.9492 36.4922L58.8945 44.6191L62.5547 40.9492C66.3848 37.7148 70.6602 35.9375 74.6094 35.9375C82.5781 35.9375 89.0625 42.2461 89.0625 50C89.0625 57.7539 82.5781 64.0625 74.6094 64.0625C62.5 64.0625 54.2695 48.0566 54.1875 47.8945C53.7109 46.9316 43.2734 26.5625 25.3906 26.5625C12.252 26.5625 1.5625 37.0762 1.5625 50C1.5625 62.9238 12.252 73.4375 25.3906 73.4375C31.8262 73.4375 38.1602 70.877 43.709 66.0312L43.8281 65.9258L46.0508 63.5078L41.1035 55.3809L37.4258 59.0684C33.5937 62.3828 29.543 64.0625 25.3906 64.0625C17.4219 64.0625 10.9375 57.7539 10.9375 50C10.9375 42.2461 17.4219 35.9375 25.3906 35.9375C37.5 35.9375 45.7305 51.9434 45.8125 52.1055C46.2891 53.0684 56.7266 73.4375 74.6094 73.4375C87.748 73.4375 98.4375 62.9238 98.4375 50C98.4375 37.0762 87.748 26.5625 74.6094 26.5625Z" fill="#282828"/>
</svg>
