<svg fill="#000000" xmlns="http://www.w3.org/2000/svg" viewBox="0 0 24 24" width="100px" height="100px"><path d="M 12.0625 2 C 9.523438 2.179688 7.433594 3.679688 6.53125 6.21875 C 6.421875 6.527344 6.210938 7.082031 6.15625 7.53125 L 8.1875 7.84375 C 8.242188 7.40625 8.382813 7 8.5625 6.59375 C 9.449219 4.835938 11.289063 3.453125 14.21875 4.21875 C 15.738281 4.617188 16.859375 5.417969 17.46875 6.5625 C 18.03125 7.617188 18.167969 8.953125 17.8125 10.3125 C 17.089844 13.082031 13.21875 16 13.21875 16 L 12.59375 18.28125 C 12.464844 18.789063 11.75 19.949219 10.1875 19.6875 C 8.414063 19.390625 8.625 17.566406 8.71875 16.96875 L 6.6875 16.71875 C 6.617188 17.179688 6.390625 20.84375 9.65625 21.625 C 12.746094 22.363281 14.308594 19.800781 14.5625 18.78125 L 14.96875 17.15625 C 15.925781 16.390625 18.945313 13.773438 19.71875 10.8125 C 20.203125 8.964844 20.046875 7.125 19.25 5.625 C 18.371094 3.976563 16.796875 2.824219 14.71875 2.28125 C 13.800781 2.042969 12.910156 1.941406 12.0625 2 Z M 12.84375 5.0625 C 11.484375 5.140625 9.621094 6.039063 8.59375 9.96875 L 8.34375 10.9375 L 9.3125 11.1875 C 9.570313 11.253906 10.285156 11.652344 10 12.4375 C 9.742188 13.140625 8.28125 13 7.65625 12.875 L 7.4375 14.84375 C 7.691406 14.917969 11.195313 15.4375 11.9375 12.9375 C 12.164063 12.167969 12.03125 11.347656 11.625 10.65625 C 11.398438 10.269531 11.105469 9.933594 10.75 9.6875 C 11.253906 8.167969 12.109375 6.746094 13.46875 7.125 C 15.121094 7.585938 14.960938 9.605469 14.9375 9.875 L 16.71875 10 C 16.9375 9.527344 17.210938 6.019531 13.96875 5.1875 C 13.679688 5.113281 13.296875 5.035156 12.84375 5.0625 Z"/></svg>