<?xml version="1.0" encoding="UTF-8"?>
<svg xmlns="http://www.w3.org/2000/svg" xmlns:xlink="http://www.w3.org/1999/xlink" width="100pt" height="100pt" viewBox="0 0 100 100" version="1.1">
<g id="surface4365223">
<path style=" stroke:none;fill-rule:nonzero;fill:rgb(0%,0%,0%);fill-opacity:1;" d="M 46.703125 0 C 46.085938 0.0351562 45.492188 0.25 44.996094 0.621094 L 20.105469 19.300781 L 19.996094 19.371094 C 19.949219 19.40625 19.90625 19.445312 19.859375 19.480469 C 19.78125 19.550781 19.703125 19.625 19.628906 19.703125 C 19.566406 19.769531 19.503906 19.835938 19.445312 19.910156 C 19.433594 19.921875 19.421875 19.933594 19.410156 19.945312 C 19.289062 20.105469 19.179688 20.277344 19.089844 20.457031 C 19.066406 20.515625 19.042969 20.570312 19.019531 20.628906 C 18.988281 20.691406 18.960938 20.75 18.933594 20.8125 C 18.925781 20.832031 18.917969 20.855469 18.910156 20.875 C 18.890625 20.929688 18.875 20.988281 18.859375 21.042969 C 18.835938 21.144531 18.8125 21.246094 18.796875 21.351562 C 18.78125 21.449219 18.769531 21.554688 18.761719 21.65625 C 18.757812 21.699219 18.753906 21.746094 18.75 21.789062 C 18.75 21.816406 18.75 21.847656 18.75 21.875 C 18.746094 21.953125 18.746094 22.03125 18.75 22.105469 L 18.75 81.25 L 25 81.25 L 25 74.390625 L 31.25 78.296875 L 31.25 87.5 L 37.5 87.5 L 37.5 82.203125 L 43.75 86.109375 L 43.75 93.75 L 50 93.75 L 50 86.109375 L 56.25 82.203125 L 56.25 87.5 L 62.5 87.5 L 62.5 78.296875 L 68.75 74.390625 L 68.75 81.25 L 75 81.25 L 75 68.785156 C 75 68.773438 75 68.761719 75 68.75 L 75 21.921875 C 75 21.90625 75 21.890625 75 21.875 C 75 21.785156 74.996094 21.695312 74.988281 21.605469 C 74.988281 21.589844 74.988281 21.574219 74.988281 21.558594 C 74.980469 21.472656 74.96875 21.386719 74.953125 21.300781 C 74.945312 21.285156 74.941406 21.269531 74.9375 21.253906 C 74.921875 21.167969 74.902344 21.082031 74.878906 20.996094 C 74.875 20.980469 74.871094 20.964844 74.867188 20.945312 C 74.839844 20.863281 74.8125 20.785156 74.78125 20.703125 C 74.773438 20.6875 74.765625 20.671875 74.757812 20.652344 C 74.722656 20.570312 74.6875 20.488281 74.644531 20.410156 C 74.636719 20.398438 74.628906 20.386719 74.621094 20.375 C 74.570312 20.28125 74.511719 20.191406 74.449219 20.105469 C 74.40625 20.035156 74.355469 19.964844 74.304688 19.898438 C 74.292969 19.886719 74.28125 19.871094 74.265625 19.859375 C 74.210938 19.792969 74.148438 19.726562 74.085938 19.664062 C 74.074219 19.652344 74.058594 19.640625 74.046875 19.628906 C 73.984375 19.570312 73.921875 19.511719 73.851562 19.457031 C 73.839844 19.445312 73.828125 19.433594 73.816406 19.421875 C 73.796875 19.40625 73.777344 19.386719 73.753906 19.371094 L 48.753906 0.621094 C 48.167969 0.179688 47.441406 -0.0390625 46.703125 0 Z M 46.875 7.03125 L 62.5 18.75 L 31.25 18.75 Z M 25 25 L 68.75 25 L 68.75 67.015625 L 46.875 80.6875 L 25 67.015625 Z M 46.898438 31.152344 L 42.261719 42.066406 L 30.46875 43.066406 L 39.367188 50.964844 L 36.742188 62.5 L 46.898438 56.359375 L 57.054688 62.5 L 54.40625 50.964844 L 63.316406 43.066406 L 51.527344 42.066406 Z M 46.898438 31.152344 "/>
</g>
</svg>
