<svg xmlns="http://www.w3.org/2000/svg" xmlns:xlink="http://www.w3.org/1999/xlink" width="51.52" height="51.52" viewBox="0 0 51.52 51.52">
  <defs>
    <clipPath id="clip-path">
      <path id="Path_7" data-name="Path 7" d="M256-230.24,281.76-256,256-249.144Z" transform="translate(-256 256)" fill="none" clip-rule="evenodd"/>
    </clipPath>
    <clipPath id="clip-path-2">
      <path id="Path_6" data-name="Path 6" d="M79-381.48h51.52V-433H79Z" transform="translate(-79 433)" fill="none"/>
    </clipPath>
    <clipPath id="clip-path-3">
      <path id="Path_10" data-name="Path 10" d="M104.76-433,79-407.24h51.52Z" transform="translate(-79 433)" fill="none" clip-rule="evenodd"/>
    </clipPath>
    <clipPath id="clip-path-5">
      <path id="Path_13" data-name="Path 13" d="M281.76-256H256v6.84Z" transform="translate(-256 256)" fill="none" clip-rule="evenodd"/>
    </clipPath>
  </defs>
  <g id="Group_165" data-name="Group 165" transform="translate(-160 -30)">
    <g id="Group_7" data-name="Group 7" transform="translate(185.76 55.76)" clip-path="url(#clip-path)">
      <g id="Group_6" data-name="Group 6" transform="translate(-25.76 -25.76)" clip-path="url(#clip-path-2)">
        <path id="Path_5" data-name="Path 5" d="M251-261h27.215v27.215H251Z" transform="translate(-225.968 286.032)" fill="rgba(255,255,255,0.75)"/>
      </g>
    </g>
    <g id="Group_9" data-name="Group 9" transform="translate(160 30)" clip-path="url(#clip-path-3)">
      <g id="Group_8" data-name="Group 8" transform="translate(0 0)" clip-path="url(#clip-path-2)">
        <path id="Path_8" data-name="Path 8" d="M74-438h52.975v27.215H74Z" transform="translate(-74.728 437.272)" fill="#fff"/>
      </g>
    </g>
    <g id="Group_11" data-name="Group 11" transform="translate(185.76 55.76)" clip-path="url(#clip-path-5)">
      <g id="Group_10" data-name="Group 10" transform="translate(-25.76 -25.76)" clip-path="url(#clip-path-2)">
        <path id="Path_11" data-name="Path 11" d="M251-261h27.215v8.3H251Z" transform="translate(-225.968 286.032)" fill="rgba(255,255,255,0.25)"/>
      </g>
    </g>
  </g>
</svg>
