<svg height="90" viewBox="0 0 90 90" width="90" xmlns="http://www.w3.org/2000/svg" xmlns:xlink="http://www.w3.org/1999/xlink"><clipPath id="a"><path d="m0 0h90v90h-90z"/></clipPath><linearGradient id="b" gradientUnits="objectBoundingBox" x1=".5" x2=".5" y2="1"><stop offset="0" stop-color="#871df5"/><stop offset="1" stop-color="#3b10ba"/></linearGradient><g clip-path="url(#a)"><path d="m23 0h44a23 23 0 0 1 23 23v44a23 23 0 0 1 -23 23h-44a23 23 0 0 1 -23-23v-44a23 23 0 0 1 23-23z" fill="url(#b)"/><g fill="#fff" transform="translate(28 17.997)"><path d="m16.78.19-16.16 10a1.32 1.32 0 0 0 -.62 1.11v4.62a.65.65 0 0 0 .65.65.64.64 0 0 0 .35-.1l12.7-7.89a.32.32 0 0 1 .44.08.33.33 0 0 1 .06.19v29.53a1.3 1.3 0 0 0 .61 1.1l1.5.93a1.94 1.94 0 0 0 2 0l1.71-1a1.3 1.3 0 0 0 .67-1.13v-29.43a.33.33 0 0 1 .31-.33.34.34 0 0 1 .17.05l12.71 7.9a.66.66 0 0 0 .9-.2.71.71 0 0 0 .1-.35v-4.62a1.29 1.29 0 0 0 -.62-1.1l-16.13-10.01a1.31 1.31 0 0 0 -1.35 0z"/><path d="m24.55 23.85 4.45 2.78a1.07 1.07 0 0 1 .52.92v1.8a.65.65 0 0 0 .65.65h4a.65.65 0 0 0 .65-.65v-5.35a.66.66 0 0 0 -.31-.56l-9.66-6a.43.43 0 0 0 -.66.37v5.44a.66.66 0 0 0 .36.6z"/><path d="m28.93 40.6-10.8 6.7a1.3 1.3 0 0 1 -1.37 0l-10.89-6.78a1.31 1.31 0 0 1 -.61-1.11v-11.78a1.09 1.09 0 0 1 .51-.92l4.54-2.82a.66.66 0 0 0 .31-.55v-5.48a.43.43 0 0 0 -.43-.43.48.48 0 0 0 -.23.07l-9.65 6a.65.65 0 0 0 -.31.55v19a.66.66 0 0 0 .31.55l16.46 10.2a1.3 1.3 0 0 0 1.37 0l16.12-10a1.29 1.29 0 0 0 .62-1.1v-4.89a.65.65 0 0 0 -.61-.69h-4a.65.65 0 0 0 -.65.65v1.69a1.31 1.31 0 0 1 -.69 1.14z"/></g></g></svg>