<svg id="eulkwy130z81" xmlns="http://www.w3.org/2000/svg" xmlns:xlink="http://www.w3.org/1999/xlink" viewBox="0 0 229 158" shape-rendering="geometricPrecision" text-rendering="geometricPrecision"><style><![CDATA[#eulkwy130z82_to {animation: eulkwy130z82_to__to 2000ms linear infinite normal forwards}@keyframes eulkwy130z82_to__to { 0% {transform: translate(131.359221px,3.267510px)} 100% {transform: translate(-511.998996px,382.799064px)} }#eulkwy130z83_to {animation: eulkwy130z83_to__to 2000ms linear infinite normal forwards}@keyframes eulkwy130z83_to__to { 0% {transform: translate(-88.917308px,3.617923px)} 100% {transform: translate(-717.775525px,383.149477px)} }#eulkwy130z84_to {animation: eulkwy130z84_to__to 2000ms linear infinite normal forwards}@keyframes eulkwy130z84_to__to { 0% {transform: translate(193.770731px,-172.242156px)} 100% {transform: translate(-449.587486px,207.289398px)} }#eulkwy130z85_to {animation: eulkwy130z85_to__to 2000ms linear infinite normal forwards}@keyframes eulkwy130z85_to__to { 0% {transform: translate(385.125821px,-213.068099px)} 100% {transform: translate(-258.232396px,166.463455px)} }#eulkwy130z86_to {animation: eulkwy130z86_to__to 2000ms linear infinite normal forwards}@keyframes eulkwy130z86_to__to { 0% {transform: translate(11.082692px,121.547510px)} 100% {transform: translate(-40.199230px,157.818906px)} }#eulkwy130z87_to {animation: eulkwy130z87_to__to 2000ms linear infinite normal forwards}@keyframes eulkwy130z87_to__to { 0% {transform: translate(95.920837px,61.407510px)} 100% {transform: translate(11.082692px,121.547510px)} }#eulkwy130z88_to {animation: eulkwy130z88_to__to 2000ms linear infinite normal forwards}@keyframes eulkwy130z88_to__to { 0% {transform: translate(60px,-28px);animation-timing-function: cubic-bezier(0.420000,0,0.580000,1)} 50% {transform: translate(84.208780px,-19px);animation-timing-function: cubic-bezier(0.420000,0,0.580000,1)} 100% {transform: translate(60px,-28px)} }#eulkwy130z89_to {animation: eulkwy130z89_to__to 2000ms linear infinite normal forwards}@keyframes eulkwy130z89_to__to { 0% {transform: translate(564.440909px,-375.913631px)} 100% {transform: translate(-88.917308px,3.617923px)} }#eulkwy130z810_to {animation: eulkwy130z810_to__to 2000ms linear infinite normal forwards}@keyframes eulkwy130z810_to__to { 0% {transform: translate(-3.917308px,-88.962304px)} 100% {transform: translate(-158.917308px,21.547510px)} }#eulkwy130z811_to {animation: eulkwy130z811_to__to 2000ms linear infinite normal forwards}@keyframes eulkwy130z811_to__to { 0% {transform: translate(-158.917308px,21.547510px)} 100% {transform: translate(-281.553760px,112.407510px)} }#eulkwy130z812_to {animation: eulkwy130z812_to__to 2000ms linear infinite normal forwards}@keyframes eulkwy130z812_to__to { 0% {transform: translate(-138.917308px,1.547510px)} 100% {transform: translate(-218.613467px,48.570751px)} }#eulkwy130z813_to {animation: eulkwy130z813_to__to 2000ms linear infinite normal forwards}@keyframes eulkwy130z813_to__to { 0% {transform: translate(-93.917308px,-28.307066px)} 100% {transform: translate(-138.917308px,1.547510px)} }]]></style><g id="eulkwy130z82_to" transform="translate(131.359221,3.267510)"><path id="eulkwy130z82" d="M202.646758,-1.677175C202.453943,-1.894979,202.371153,-2.190796,202.114066,-2.481168C200.698456,-4.078354,197.549691,-3.980383,195.117174,-2.263462C193.348070,-1.014821,192.489662,0.653096,192.552300,2.143163C192.266890,2.226669,191.760343,2.466199,191.428636,2.700335C189.880670,3.792902,189.371944,5.449931,190.272836,6.466332C190.401379,6.611518,190.530467,6.756705,190.705308,6.751261C188.907881,8.373828,188.371376,10.404735,189.529355,11.711509C190.752150,13.090852,193.550689,13.003798,195.651499,11.520973L206.708398,3.716882C208.809209,2.234105,209.548877,-0.176123,208.326627,-1.555514C207.168104,-2.862288,204.765543,-2.936714,202.646758,-1.677175Z" transform="translate(0,0)" fill="rgb(40,40,40)" fill-opacity="0.79" stroke="none" stroke-width="1"/></g><g id="eulkwy130z83_to" transform="translate(-88.917308,3.617923)"><path id="eulkwy130z83" d="M209.511483,-0.707397C209.222261,-1.034035,209.098075,-1.477670,208.712445,-1.913139C206.589030,-4.308428,201.865883,-4.161502,198.217106,-1.586646C195.563451,0.285932,194.275839,2.787296,194.369796,5.021941C193.941681,5.147173,193.181860,5.506395,192.684300,5.857527C190.362351,7.496042,189.599262,9.981078,190.950600,11.505368C191.143415,11.723103,191.337047,11.940838,191.599307,11.932674C188.903167,14.366028,188.098410,17.411765,189.835378,19.371526C191.669570,21.440117,195.867379,21.309563,199.018595,19.085780L215.603943,7.382036C218.755159,5.158326,219.864662,1.543722,218.031286,-0.524942C216.293501,-2.484703,212.689661,-2.596318,209.511483,-0.707397Z" transform="translate(0,0)" fill="rgb(40,40,40)" stroke="none" stroke-width="1"/></g><g id="eulkwy130z84_to" transform="translate(193.770731,-172.242156)"><path id="eulkwy130z84" d="M211.570901,-0.417058C211.252756,-0.776281,211.116152,-1.264169,210.691959,-1.743079C208.356203,-4.377309,203.160740,-4.215727,199.147086,-1.384017C196.228065,0.675360,194.811693,3.426247,194.915045,5.883808C194.444119,6.021532,193.608315,6.416589,193.060999,6.802747C190.506855,8.604712,189.667457,11.337642,191.153929,13.013988C191.366025,13.253443,191.579020,13.492898,191.867507,13.483919C188.901753,16.160011,188.016520,19.509576,189.927185,21.664831C191.944797,23.939774,196.562386,23.796197,200.028724,21.350582L218.272607,8.479333C221.738944,6.033798,222.959397,2.058620,220.942684,-0.216403C219.031121,-2.371659,215.066896,-2.494408,211.570901,-0.417058Z" transform="translate(0,0)" fill="rgb(40,40,40)" stroke="none" stroke-width="1"/></g><g id="eulkwy130z85_to" transform="translate(385.125821,-213.068099)"><path id="eulkwy130z85" d="M212.943846,-0.223102C212.606420,-0.604092,212.461536,-1.121544,212.011635,-1.629473C209.534317,-4.423324,204.023979,-4.251951,199.767073,-1.248654C196.671141,0.935511,195.168928,3.853087,195.278544,6.459563C194.779077,6.605633,193.892619,7.024628,193.312132,7.434186C190.603191,9.345341,189.712920,12.243872,191.289482,14.021795C191.514432,14.275760,191.740336,14.529724,192.046307,14.520202C188.900810,17.358451,187.961927,20.910982,189.988390,23.196835C192.128281,25.609627,197.025724,25.457350,200.702143,22.863543L220.051716,9.212364C223.728134,6.618642,225.022554,2.402589,222.883616,-0.010289C220.856200,-2.296142,216.651719,-2.426329,212.943846,-0.223102Z" transform="translate(0,0)" fill="rgb(40,40,40)" fill-opacity="0.89" stroke="none" stroke-width="1"/></g><g id="eulkwy130z86_to" transform="translate(11.082692,121.547510)"><path id="eulkwy130z86" d="M195.782033,9.540070C195.685626,9.418015,195.644230,9.252241,195.515687,9.089519C194.807882,8.194468,193.233500,8.249370,192.017241,9.211520C191.132689,9.911249,190.703485,10.845937,190.734804,11.680959C190.592099,11.727755,190.338825,11.861986,190.172972,11.993194C189.398989,12.605460,189.144626,13.534046,189.595072,14.103630C189.659343,14.184991,189.723887,14.266352,189.811308,14.263302C188.912594,15.172576,188.644342,16.310681,189.223331,17.042987C189.834729,17.815960,191.233998,17.767176,192.284404,16.936212L197.812853,12.562859C198.863258,11.731922,199.233093,10.381248,198.621967,9.608248C198.042706,8.875942,196.841425,8.834234,195.782033,9.540070Z" transform="translate(0,0)" fill="rgb(40,40,40)" fill-opacity="0.75" stroke="none" stroke-width="1"/></g><g id="eulkwy130z87_to" transform="translate(95.920837,61.407510)"><path id="eulkwy130z87" d="M195.782033,9.540070C195.685626,9.418015,195.644230,9.252241,195.515687,9.089519C194.807882,8.194468,193.233500,8.249370,192.017241,9.211520C191.132689,9.911249,190.703485,10.845937,190.734804,11.680959C190.592099,11.727755,190.338825,11.861986,190.172972,11.993194C189.398989,12.605460,189.144626,13.534046,189.595072,14.103630C189.659343,14.184991,189.723887,14.266352,189.811308,14.263302C188.912594,15.172576,188.644342,16.310681,189.223331,17.042987C189.834729,17.815960,191.233998,17.767176,192.284404,16.936212L197.812853,12.562859C198.863258,11.731922,199.233093,10.381248,198.621967,9.608248C198.042706,8.875942,196.841425,8.834234,195.782033,9.540070Z" transform="translate(0,0)" fill="rgb(40,40,40)" fill-opacity="0.75" stroke="none" stroke-width="1"/></g><g id="eulkwy130z88_to" transform="translate(60,-28)"><path id="eulkwy130z88" d="M54.400640,138L41.600080,101.220800L0,101.220800L80,58L54.400640,138Z" transform="translate(0,0)" fill="rgb(40,40,40)" stroke="none" stroke-width="1"/></g><g id="eulkwy130z89_to" transform="translate(564.440909,-375.913631)"><path id="eulkwy130z89" d="M209.511483,-0.707397C209.222261,-1.034035,209.098075,-1.477670,208.712445,-1.913139C206.589030,-4.308428,201.865883,-4.161502,198.217106,-1.586646C195.563451,0.285932,194.275839,2.787296,194.369796,5.021941C193.941681,5.147173,193.181860,5.506395,192.684300,5.857527C190.362351,7.496042,189.599262,9.981078,190.950600,11.505368C191.143415,11.723103,191.337047,11.940838,191.599307,11.932674C188.903167,14.366028,188.098410,17.411765,189.835378,19.371526C191.669570,21.440117,195.867379,21.309563,199.018595,19.085780L215.603943,7.382036C218.755159,5.158326,219.864662,1.543722,218.031286,-0.524942C216.293501,-2.484703,212.689661,-2.596318,209.511483,-0.707397Z" transform="translate(0,0)" fill="rgb(40,40,40)" stroke="none" stroke-width="1"/></g><g id="eulkwy130z810_to" transform="translate(-3.917308,-88.962304)"><path id="eulkwy130z810" d="M199.214395,10.083860C199.069784,9.900777,199.007691,9.652117,198.814877,9.408033C197.753169,8.065457,195.391595,8.147810,193.567207,9.591035C192.240379,10.640628,191.596574,12.042660,191.643552,13.295194C191.429495,13.365387,191.049584,13.566734,190.800804,13.763545C189.639829,14.681945,189.258285,16.074825,189.933954,16.929200C190.030361,17.051242,190.127177,17.173284,190.258308,17.168708C188.910238,18.532619,188.507859,20.239777,189.376343,21.338236C190.293439,22.497695,192.392344,22.424519,193.967952,21.178074L202.260625,14.618043C203.836234,13.371638,204.390985,11.345628,203.474297,10.186127C202.605405,9.087668,200.803484,9.025107,199.214395,10.083860Z" transform="translate(0,0)" fill="rgb(40,40,40)" fill-opacity="0.75" stroke="none" stroke-width="1"/></g><g id="eulkwy130z811_to" transform="translate(-158.917308,21.547510)"><path id="eulkwy130z811" d="M199.214395,10.083860C199.069784,9.900777,199.007691,9.652117,198.814877,9.408033C197.753169,8.065457,195.391595,8.147810,193.567207,9.591035C192.240379,10.640628,191.596574,12.042660,191.643552,13.295194C191.429495,13.365387,191.049584,13.566734,190.800804,13.763545C189.639829,14.681945,189.258285,16.074825,189.933954,16.929200C190.030361,17.051242,190.127177,17.173284,190.258308,17.168708C188.910238,18.532619,188.507859,20.239777,189.376343,21.338236C190.293439,22.497695,192.392344,22.424519,193.967952,21.178074L202.260625,14.618043C203.836234,13.371638,204.390985,11.345628,203.474297,10.186127C202.605405,9.087668,200.803484,9.025107,199.214395,10.083860Z" transform="translate(0,0)" fill="rgb(40,40,40)" fill-opacity="0.75" stroke="none" stroke-width="1"/></g><g id="eulkwy130z812_to" transform="translate(-138.917308,1.547510)"><path id="eulkwy130z812" d="M192.349670,8.996280C192.301467,8.935252,192.280769,8.852366,192.216497,8.771004C191.862595,8.323479,191.075404,8.350930,190.467274,8.832005C190.024998,9.181869,189.810396,9.649213,189.826056,10.066725C189.754703,10.090122,189.628067,10.157238,189.545140,10.222842C189.158148,10.528975,189.030967,10.993268,189.256190,11.278060C189.288326,11.318741,189.320598,11.359421,189.364308,11.357896C188.914951,11.812533,188.780825,12.381586,189.070320,12.747739C189.376018,13.134225,190.075653,13.109833,190.600856,12.694351L193.365080,10.507674C193.890283,10.092206,194.075200,9.416869,193.769638,9.030369C193.480007,8.664216,192.879367,8.643362,192.349670,8.996280Z" transform="translate(0,0)" fill="rgb(40,40,40)" fill-opacity="0.51" stroke="none" stroke-width="1"/></g><g id="eulkwy130z813_to" transform="translate(-93.917308,-28.307066)"><path id="eulkwy130z813" d="M192.349670,8.996280C192.301467,8.935252,192.280769,8.852366,192.216497,8.771004C191.862595,8.323479,191.075404,8.350930,190.467274,8.832005C190.024998,9.181869,189.810396,9.649213,189.826056,10.066725C189.754703,10.090122,189.628067,10.157238,189.545140,10.222842C189.158148,10.528975,189.030967,10.993268,189.256190,11.278060C189.288326,11.318741,189.320598,11.359421,189.364308,11.357896C188.914951,11.812533,188.780825,12.381586,189.070320,12.747739C189.376018,13.134225,190.075653,13.109833,190.600856,12.694351L193.365080,10.507674C193.890283,10.092206,194.075200,9.416869,193.769638,9.030369C193.480007,8.664216,192.879367,8.643362,192.349670,8.996280Z" transform="translate(0,0)" fill="rgb(40,40,40)" fill-opacity="0.51" stroke="none" stroke-width="1"/></g></svg>