<?xml version="1.0" encoding="utf-8"?>
<svg width="93px" height="38px" viewBox="0 0 93 38" version="1.1" xmlns:xlink="http://www.w3.org/1999/xlink" xmlns="http://www.w3.org/2000/svg">
  <desc>Created with Lunacy</desc>
  <g id="LogoV12">
    <g id="TRAIN-IN-BLOCKS" transform="translate(41 0)">
      <g id="TRAIN" fill="#282828">
        <path d="M7.18359 2.1582L4.57031 2.1582L4.57031 9.26563L2.8125 9.26563L2.8125 2.1582L0.234375 2.1582L0.234375 0.734375L7.18359 0.734375L7.18359 2.1582ZM12.3438 6.14258L10.9434 6.14258L10.9434 9.26563L9.18555 9.26563L9.18555 0.734375L12.3555 0.734375Q13.8672 0.734375 14.6875 1.4082Q15.5078 2.08203 15.5078 3.3125Q15.5078 4.18555 15.1299 4.76855Q14.752 5.35156 13.9844 5.69727L15.8301 9.18359L15.8301 9.26563L13.9434 9.26563L12.3438 6.14258ZM19.5781 7.50781L22.6602 7.50781L23.252 9.26563L25.1211 9.26563L21.9277 0.734375L20.2988 0.734375L17.123 9.26563L18.9922 9.26563L19.5781 7.50781ZM28.7871 9.26563L27.0293 9.26563L27.0293 0.734375L28.7871 0.734375L28.7871 9.26563ZM36.5957 9.26563L38.3535 9.26563L38.3535 0.734375L36.6016 0.734375L36.6016 6.35938L33.1738 0.734375L31.416 0.734375L31.416 9.26563L33.1738 9.26563L33.1738 3.65234L36.5957 9.26563ZM10.9434 4.71875L12.3613 4.71875Q13.0234 4.71875 13.3867 4.38184Q13.75 4.04492 13.75 3.45313Q13.75 2.84961 13.4072 2.50391Q13.0645 2.1582 12.3555 2.1582L10.9434 2.1582L10.9434 4.71875ZM22.1855 6.08398L20.0527 6.08398L21.1133 2.89063L22.1855 6.08398Z" />
      </g>
      <g id="IN" fill="#282828">
        <path d="M0.873047 23.2656L2.63086 23.2656L2.63086 14.7344L0.873047 14.7344L0.873047 23.2656ZM10.4395 23.2656L12.1973 23.2656L12.1973 14.7344L10.4453 14.7344L10.4453 20.3594L7.01758 14.7344L5.25977 14.7344L5.25977 23.2656L7.01758 23.2656L7.01758 17.6523L10.4395 23.2656Z" />
      </g>
      <g id="BLOCKS" fill="#282828">
        <path d="M23.9258 33.1934Q23.9258 34.4531 23.4805 35.4023Q23.0352 36.3516 22.2061 36.8672Q21.377 37.3828 20.3047 37.3828Q19.2441 37.3828 18.4121 36.873Q17.5801 36.3633 17.123 35.417Q16.666 34.4707 16.6602 33.2402L16.6602 32.8184Q16.6602 31.5586 17.1143 30.6006Q17.5684 29.6426 18.3975 29.1299Q19.2266 28.6172 20.293 28.6172Q21.3594 28.6172 22.1885 29.1299Q23.0176 29.6426 23.4717 30.6006Q23.9258 31.5586 23.9258 32.8125L23.9258 33.1934ZM31.8838 36.5918Q32.8008 35.8008 32.9004 34.4238L31.1426 34.4238Q31.084 35.2031 30.6826 35.5752Q30.2813 35.9473 29.4668 35.9473Q28.5645 35.9473 28.1455 35.3086Q27.7266 34.6699 27.7266 33.2871L27.7266 32.6426Q27.7383 31.3184 28.1748 30.6885Q28.6113 30.0586 29.4902 30.0586Q30.2988 30.0586 30.6943 30.4307Q31.0898 30.8027 31.1543 31.6289L32.9121 31.6289Q32.7715 30.1992 31.8691 29.4082Q30.9668 28.6172 29.4902 28.6172Q28.4238 28.6172 27.6182 29.1182Q26.8125 29.6191 26.3789 30.5566Q25.9453 31.4941 25.9453 32.7246L25.9453 33.2461Q25.9453 35.1738 26.8857 36.2783Q27.8262 37.3828 29.4668 37.3828Q30.9668 37.3828 31.8838 36.5918ZM47.7441 34.2627Q48.0957 34.5293 48.0957 35.0273Q48.0957 35.4844 47.7441 35.7393Q47.3926 35.9941 46.7656 35.9941Q45.0781 35.9941 45.0781 34.582L43.3145 34.582Q43.3145 35.4082 43.7393 36.0352Q44.1641 36.6621 44.9727 37.0225Q45.7813 37.3828 46.7656 37.3828Q48.1836 37.3828 49.0215 36.7529Q49.8594 36.123 49.8594 35.0156Q49.8594 34.0195 49.1738 33.3516Q48.4883 32.6836 46.9883 32.2324Q46.1738 31.9863 45.7549 31.7051Q45.3359 31.4238 45.3359 31.0078Q45.3359 30.5625 45.6934 30.29Q46.0508 30.0176 46.6953 30.0176Q47.3633 30.0176 47.7324 30.3428Q48.1016 30.668 48.1016 31.2539L49.8594 31.2539Q49.8594 30.4863 49.4639 29.8828Q49.0684 29.2793 48.3535 28.9482Q47.6387 28.6172 46.7246 28.6172Q45.8164 28.6172 45.0869 28.9219Q44.3574 29.2266 43.9678 29.7686Q43.5781 30.3105 43.5781 31.002Q43.5781 32.332 45.0313 33.1172Q45.5645 33.4043 46.4785 33.7002Q47.3926 33.9961 47.7441 34.2627ZM0.761719 28.7344L0.761719 37.2656L4.07813 37.2656Q5.53125 37.2539 6.31641 36.6211Q7.10156 35.9883 7.10156 34.7578Q7.10156 34.0371 6.72363 33.5391Q6.3457 33.041 5.68945 32.877Q6.26367 32.6543 6.58594 32.1768Q6.9082 31.6992 6.9082 31.0723Q6.9082 29.9238 6.10547 29.3291Q5.30273 28.7344 3.75 28.7344L0.761719 28.7344ZM14.9102 35.8535L11.1777 35.8535L11.1777 28.7344L9.41992 28.7344L9.41992 37.2656L14.9102 37.2656L14.9102 35.8535ZM37.7266 33.8438L36.8125 34.8281L36.8125 37.2656L35.0547 37.2656L35.0547 28.7344L36.8125 28.7344L36.8125 32.6016L37.5859 31.541L39.7598 28.7344L41.9219 28.7344L38.8926 32.5254L42.0098 37.2656L39.918 37.2656L37.7266 33.8438ZM22.1445 32.8066Q22.1445 31.4648 21.6641 30.7676Q21.1836 30.0703 20.293 30.0703Q19.4082 30.0703 18.9277 30.7588Q18.4473 31.4473 18.4414 32.7773L18.4414 33.1934Q18.4414 34.5 18.9219 35.2207Q19.4023 35.9414 20.3047 35.9414Q21.1895 35.9414 21.6641 35.2471Q22.1387 34.5527 22.1445 33.2227L22.1445 32.8066ZM3.82031 32.3086L2.51953 32.3086L2.51953 30.1582L3.75 30.1582Q4.47656 30.1582 4.81348 30.4131Q5.15039 30.668 5.15039 31.248Q5.15039 32.2852 3.82031 32.3086ZM2.51953 35.8535L2.51953 33.5508L4.13086 33.5508Q5.34375 33.5684 5.34375 34.7402Q5.34375 35.2617 4.99512 35.5576Q4.64648 35.8535 4.02539 35.8535L2.51953 35.8535Z" />
      </g>
    </g>
    <path d="M0 0L38 0L38 15L15 15L15 38L0 38L0 0Z" id="Rectangle" fill="#282828" stroke="none" />
    <path d="M0 0L14 0L14 14L0 14L0 0Z" transform="translate(23.99988 24)" id="Rectangle-2" fill="#282828" stroke="none" />
  </g>
</svg>