<?xml version="1.0" encoding="utf-8"?>
<svg width="92px" height="12px" viewBox="0 0 92 12" version="1.1" xmlns:xlink="http://www.w3.org/1999/xlink" xmlns="http://www.w3.org/2000/svg">
  <desc>Created with Lunacy</desc>
  <g id="LogoV10">
    <path d="M0 0L44 0L44 12L0 12L0 0Z" transform="translate(47.00012 0)" id="Rectangle-4" fill="#282828" stroke="none" />
    <g id="TRAIN-IN-BLOCKS" transform="translate(0.0001220703 2)">
      <g id="TRAIN-IN" fill="#282828">
        <path d="M5.98633 1.63184L3.80859 1.63184L3.80859 7.55469L2.34375 7.55469L2.34375 1.63184L0.195313 1.63184L0.195313 0.445313L5.98633 0.445313L5.98633 1.63184ZM10.0531 4.95215L8.88613 4.95215L8.88613 7.55469L7.42129 7.55469L7.42129 0.445313L10.0629 0.445313Q11.3227 0.445313 12.0063 1.00684Q12.6898 1.56836 12.6898 2.59375Q12.6898 3.32129 12.3749 3.80713Q12.06 4.29297 11.4203 4.58105L12.9584 7.48633L12.9584 7.55469L11.3861 7.55469L10.0531 4.95215ZM15.8484 6.08984L18.4168 6.08984L18.91 7.55469L20.4676 7.55469L17.8064 0.445313L16.449 0.445313L13.8025 7.55469L15.3602 7.55469L15.8484 6.08984ZM23.2893 7.55469L21.8244 7.55469L21.8244 0.445313L23.2893 0.445313L23.2893 7.55469ZM29.5631 7.55469L31.0279 7.55469L31.0279 0.445313L29.568 0.445313L29.568 5.13281L26.7115 0.445313L25.2467 0.445313L25.2467 7.55469L26.7115 7.55469L26.7115 2.87695L29.5631 7.55469ZM36.9551 7.55469L35.4902 7.55469L35.4902 0.445313L36.9551 0.445313L36.9551 7.55469ZM43.2289 7.55469L44.6937 7.55469L44.6937 0.445313L43.2338 0.445313L43.2338 5.13281L40.3773 0.445313L38.9125 0.445313L38.9125 7.55469L40.3773 7.55469L40.3773 2.87695L43.2289 7.55469ZM8.88613 3.76563L10.0678 3.76563Q10.6195 3.76563 10.9223 3.48486Q11.225 3.2041 11.225 2.71094Q11.225 2.20801 10.9394 1.91992Q10.6537 1.63184 10.0629 1.63184L8.88613 1.63184L8.88613 3.76563ZM18.0213 4.90332L16.2439 4.90332L17.1277 2.24219L18.0213 4.90332Z" />
      </g>
      <g id="BLOCKS" fill="#FFFFFF">
        <path d="M67.9 4.16113Q67.9 5.21094 67.5289 6.00195Q67.1578 6.79297 66.4669 7.22266Q65.776 7.65234 64.8824 7.65234Q63.9986 7.65234 63.3053 7.22754Q62.6119 6.80273 62.231 6.01416Q61.8502 5.22559 61.8453 4.2002L61.8453 3.84863Q61.8453 2.79883 62.2237 2.00049Q62.6021 1.20215 63.2931 0.774902Q63.984 0.347657 64.8727 0.347656Q65.7613 0.347656 66.4522 0.774902Q67.1432 1.20215 67.5216 2.00049Q67.9 2.79883 67.9 3.84375L67.9 4.16113ZM74.2983 6.99316Q75.0625 6.33398 75.1455 5.18652L73.6807 5.18652Q73.6318 5.83594 73.2974 6.146Q72.9629 6.45605 72.2842 6.45605Q71.5322 6.45605 71.1831 5.92383Q70.834 5.3916 70.834 4.23926L70.834 3.70215Q70.8437 2.59863 71.2075 2.07373Q71.5713 1.54883 72.3037 1.54883Q72.9775 1.54883 73.3071 1.85889Q73.6367 2.16895 73.6904 2.85742L75.1553 2.85742Q75.0381 1.66602 74.2861 1.00684Q73.5342 0.347656 72.3037 0.347656Q71.415 0.347656 70.7436 0.765137Q70.0723 1.18262 69.7109 1.96387Q69.3496 2.74512 69.3496 3.77051L69.3496 4.20508Q69.3496 5.81152 70.1333 6.73193Q70.917 7.65234 72.2842 7.65234Q73.5342 7.65234 74.2983 6.99316ZM87.0486 5.05225Q87.3416 5.27441 87.3416 5.68945Q87.3416 6.07031 87.0486 6.28271Q86.7557 6.49512 86.2332 6.49512Q84.8269 6.49512 84.8269 5.31836L83.3572 5.31836Q83.3572 6.00684 83.7112 6.5293Q84.0652 7.05176 84.7391 7.35205Q85.4129 7.65234 86.2332 7.65234Q87.4148 7.65234 88.1131 7.12744Q88.8113 6.60254 88.8113 5.67969Q88.8113 4.84961 88.24 4.29297Q87.6687 3.73633 86.4187 3.36035Q85.74 3.15527 85.3909 2.9209Q85.0418 2.68652 85.0418 2.33984Q85.0418 1.96875 85.3396 1.7417Q85.6375 1.51465 86.1746 1.51465Q86.7312 1.51465 87.0389 1.78564Q87.3465 2.05664 87.3465 2.54492L88.8113 2.54492Q88.8113 1.90527 88.4817 1.40234Q88.1521 0.899415 87.5564 0.623535Q86.9607 0.347656 86.199 0.347656Q85.4422 0.347656 84.8343 0.601563Q84.2264 0.855469 83.9016 1.30713Q83.5769 1.75879 83.5769 2.33496Q83.5769 3.44336 84.7879 4.09766Q85.2322 4.33691 85.9939 4.5835Q86.7557 4.83008 87.0486 5.05225ZM49.0633 0.445313L49.0633 7.55469L51.827 7.55469Q53.0379 7.54492 53.6922 7.01758Q54.3465 6.49023 54.3465 5.46484Q54.3465 4.86426 54.0315 4.44922Q53.7166 4.03418 53.1697 3.89746Q53.6482 3.71191 53.9168 3.31396Q54.1853 2.91602 54.1853 2.39355Q54.1853 1.43652 53.5164 0.940918Q52.8475 0.445313 51.5535 0.445313L49.0633 0.445313ZM60.6203 6.37793L57.51 6.37793L57.51 0.445313L56.0451 0.445313L56.0451 7.55469L60.6203 7.55469L60.6203 6.37793ZM78.934 4.70313L78.1723 5.52344L78.1723 7.55469L76.7074 7.55469L76.7074 0.445313L78.1723 0.445313L78.1723 3.66797L78.8168 2.78418L80.6283 0.445313L82.4301 0.445313L79.9057 3.60449L82.5033 7.55469L80.7601 7.55469L78.934 4.70313ZM66.4156 3.83887Q66.4156 2.7207 66.0152 2.13965Q65.6148 1.55859 64.8727 1.55859Q64.1353 1.55859 63.735 2.13232Q63.3346 2.70606 63.3297 3.81445L63.3297 4.16113Q63.3297 5.25 63.7301 5.85059Q64.1305 6.45117 64.8824 6.45117Q65.6197 6.45117 66.0152 5.87256Q66.4107 5.29395 66.4156 4.18555L66.4156 3.83887ZM51.6121 3.42383L50.5281 3.42383L50.5281 1.63184L51.5535 1.63184Q52.159 1.63184 52.4397 1.84424Q52.7205 2.05664 52.7205 2.54004Q52.7205 3.4043 51.6121 3.42383ZM50.5281 6.37793L50.5281 4.45898L51.8709 4.45898Q52.8816 4.47363 52.8816 5.4502Q52.8816 5.88477 52.5911 6.13135Q52.3006 6.37793 51.783 6.37793L50.5281 6.37793Z" />
      </g>
    </g>
    <path d="M0 0L45 0L45 0.5L0 0.5L0 0Z" transform="translate(0 8.5)" id="Rectangle-2" fill="#FFFFFF" stroke="none" />
    <path d="M0 0L45 0L45 0.5L0 0.5L0 0Z" transform="translate(0 7.5)" id="Rectangle-3" fill="#FFFFFF" stroke="none" />
  </g>
</svg>