<svg width="890" height="350" viewBox="0 0 890 350" fill="none" xmlns="http://www.w3.org/2000/svg">
    <path d="M0 0H350V116.667H116.667V350H0V0Z" fill="#282828"/>
    <path d="M204.167 204.167H350V350H204.167V204.167Z" fill="#282828"/>
    <path d="M446.836 24.9258H420.703V96H403.125V24.9258H377.344V10.6875H446.836V24.9258ZM494.496 64.7695H480.492V96H462.914V10.6875H494.613C504.691 10.6875 512.465 12.9336 517.934 17.4258C523.402 21.918 526.137 28.2656 526.137 36.4688C526.137 42.2891 524.867 47.1523 522.328 51.0586C519.828 54.9258 516.02 58.0117 510.902 60.3164L529.359 95.1797V96H510.492L494.496 64.7695ZM480.492 50.5312H494.672C499.086 50.5312 502.504 49.418 504.926 47.1914C507.348 44.9258 508.559 41.8203 508.559 37.875C508.559 33.8516 507.406 30.6875 505.102 28.3828C502.836 26.0781 499.34 24.9258 494.613 24.9258H480.492V50.5312ZM593.719 78.4219H562.898L557.039 96H538.348L570.105 10.6875H586.395L618.328 96H599.637L593.719 78.4219ZM567.645 64.1836H588.973L578.25 32.25L567.645 64.1836ZM650.988 96H633.41V10.6875H650.988V96ZM742.711 96H725.133L690.914 39.8672V96H673.336V10.6875H690.914L725.191 66.9375V10.6875H742.711V96ZM401.309 216H383.73V130.688H401.309V216ZM493.031 216H475.453L441.234 159.867V216H423.656V130.688H441.234L475.512 186.938V130.688H493.031V216ZM382.617 336V250.688H412.5C422.852 250.688 430.703 252.68 436.055 256.664C441.406 260.609 444.082 266.41 444.082 274.066C444.082 278.246 443.008 281.938 440.859 285.141C438.711 288.305 435.723 290.629 431.895 292.113C436.27 293.207 439.707 295.414 442.207 298.734C444.746 302.055 446.016 306.117 446.016 310.922C446.016 319.125 443.398 325.336 438.164 329.555C432.93 333.773 425.469 335.922 415.781 336H382.617ZM400.195 298.852V321.879H415.254C419.395 321.879 422.617 320.902 424.922 318.949C427.266 316.957 428.438 314.223 428.438 310.746C428.438 302.934 424.395 298.969 416.309 298.852H400.195ZM400.195 286.43H413.203C422.07 286.273 426.504 282.738 426.504 275.824C426.504 271.957 425.371 269.184 423.105 267.504C420.879 265.785 417.344 264.926 412.5 264.926H400.195V286.43ZM482.836 321.879H520.16V336H465.258V250.688H482.836V321.879ZM602.625 295.277C602.625 303.676 601.141 311.039 598.172 317.367C595.203 323.695 590.945 328.578 585.398 332.016C579.891 335.453 573.562 337.172 566.414 337.172C559.344 337.172 553.035 335.473 547.488 332.074C541.941 328.676 537.645 323.832 534.598 317.543C531.551 311.215 530.008 303.949 529.969 295.746V291.527C529.969 283.129 531.473 275.746 534.48 269.379C537.527 262.973 541.805 258.07 547.312 254.672C552.859 251.234 559.188 249.516 566.297 249.516C573.406 249.516 579.715 251.234 585.223 254.672C590.77 258.07 595.047 262.973 598.055 269.379C601.102 275.746 602.625 283.109 602.625 291.469V295.277ZM584.812 291.41C584.812 282.465 583.211 275.668 580.008 271.02C576.805 266.371 572.234 264.047 566.297 264.047C560.398 264.047 555.848 266.352 552.645 270.961C549.441 275.531 547.82 282.25 547.781 291.117V295.277C547.781 303.988 549.383 310.746 552.586 315.551C555.789 320.355 560.398 322.758 566.414 322.758C572.312 322.758 576.844 320.453 580.008 315.844C583.172 311.195 584.773 304.438 584.812 295.57V291.41ZM688.371 307.582C687.707 316.762 684.309 323.988 678.176 329.262C672.082 334.535 664.035 337.172 654.035 337.172C643.098 337.172 634.484 333.5 628.195 326.156C621.945 318.773 618.82 308.656 618.82 295.805V290.59C618.82 282.387 620.266 275.16 623.156 268.91C626.047 262.66 630.168 257.875 635.52 254.555C640.91 251.195 647.16 249.516 654.27 249.516C664.113 249.516 672.043 252.152 678.059 257.426C684.074 262.699 687.551 270.102 688.488 279.633H670.91C670.48 274.125 668.938 270.141 666.281 267.68C663.664 265.18 659.66 263.93 654.27 263.93C648.41 263.93 644.016 266.039 641.086 270.258C638.195 274.438 636.711 280.941 636.633 289.77V296.215C636.633 305.434 638.02 312.172 640.793 316.43C643.605 320.688 648.02 322.816 654.035 322.816C659.465 322.816 663.508 321.586 666.164 319.125C668.859 316.625 670.402 312.777 670.793 307.582H688.371ZM732.633 301.781L723.492 311.625V336H705.914V250.688H723.492V289.359L731.227 278.754L752.965 250.688H774.586L744.293 288.598L775.465 336H754.547L732.633 301.781ZM832.324 313.617C832.324 310.297 831.152 307.758 828.809 306C826.465 304.203 822.246 302.328 816.152 300.375C810.059 298.383 805.234 296.43 801.68 294.516C791.992 289.281 787.148 282.23 787.148 273.363C787.148 268.754 788.438 264.652 791.016 261.059C793.633 257.426 797.363 254.594 802.207 252.562C807.09 250.531 812.559 249.516 818.613 249.516C824.707 249.516 830.137 250.629 834.902 252.855C839.668 255.043 843.359 258.148 845.977 262.172C848.633 266.195 849.961 270.766 849.961 275.883H832.383C832.383 271.977 831.152 268.949 828.691 266.801C826.23 264.613 822.773 263.52 818.32 263.52C814.023 263.52 810.684 264.438 808.301 266.273C805.918 268.07 804.727 270.453 804.727 273.422C804.727 276.195 806.113 278.52 808.887 280.395C811.699 282.27 815.82 284.027 821.25 285.668C831.25 288.676 838.535 292.406 843.105 296.859C847.676 301.312 849.961 306.859 849.961 313.5C849.961 320.883 847.168 326.684 841.582 330.902C835.996 335.082 828.477 337.172 819.023 337.172C812.461 337.172 806.484 335.98 801.094 333.598C795.703 331.176 791.582 327.875 788.73 323.695C785.918 319.516 784.512 314.672 784.512 309.164H802.148C802.148 318.578 807.773 323.285 819.023 323.285C823.203 323.285 826.465 322.445 828.809 320.766C831.152 319.047 832.324 316.664 832.324 313.617Z" fill="#282828"/>
</svg>
