<svg width="300" height="210" viewBox="0 0 300 210" fill="none" xmlns="http://www.w3.org/2000/svg">
<path d="M240 165V15.1406C240 6.75 233.203 0 224.859 0H75.1875C66.7969 0 60 6.79688 60 15.1406V165H240ZM99 79.6875L110.953 67.8281C112.922 65.8594 116.109 65.8594 118.078 67.875L137.438 87.375L182.062 43.125C184.031 41.1562 187.219 41.1562 189.188 43.1719L201.047 55.125C203.016 57.0938 203.016 60.2812 201 62.25L140.859 121.875C138.891 123.844 135.703 123.844 133.734 121.828L99 86.8125C96.9844 84.8438 97.0312 81.6562 99 79.6875Z" fill="#282828"/>
<path d="M285 135H255V165H265.5C267.984 165 270 166.688 270 168.75V176.25C270 178.312 267.984 180 265.5 180H34.5C32.0156 180 30 178.312 30 176.25V168.75C30 166.688 32.0156 165 34.5 165H45V135H15C6.70312 135 0 141.703 0 150V195C0 203.297 6.70312 210 15 210H285C293.297 210 300 203.297 300 195V150C300 141.703 293.297 135 285 135Z" fill="#282828"/>
</svg>
