<svg id="ewvlo6v76n9q1" xmlns="http://www.w3.org/2000/svg" xmlns:xlink="http://www.w3.org/1999/xlink" viewBox="0 0 300 210" shape-rendering="geometricPrecision" text-rendering="geometricPrecision"><style><![CDATA[#ewvlo6v76n9q2_to {animation: ewvlo6v76n9q2_to__to 3000ms linear infinite normal forwards}@keyframes ewvlo6v76n9q2_to__to { 0% {transform: translate(40px,13.330000px);animation-timing-function: cubic-bezier(0.680000,-0.550000,0.265000,1.550000)} 33.333333% {transform: translate(40px,78.986362px);animation-timing-function: cubic-bezier(0.680000,-0.550000,0.265000,1.550000)} 46.666667% {transform: translate(40px,78.986362px);animation-timing-function: cubic-bezier(0.420000,0,0.580000,1)} 66.666667% {transform: translate(40px,13.330000px)} 100% {transform: translate(40px,13.330000px)} }]]></style><g id="ewvlo6v76n9q2_to" transform="translate(40,13.330000)"><path id="ewvlo6v76n9q2" d="M160,91.670000L160,8.411750C160,3.750136,156.223889,0,151.588333,0L68.437500,0C63.776056,0,60,3.776182,60,8.411750L60,91.670000L160,91.670000ZM81.666667,44.272443L88.307222,37.683648C89.401111,36.589886,91.171667,36.589886,92.265556,37.709705L103.021111,48.543432L127.812222,23.959205C128.906111,22.865443,130.677222,22.865387,131.771111,23.985261L138.359444,30.626114C139.453333,31.719931,139.453333,33.490829,138.333333,34.584591L104.921667,67.710795C103.828333,68.804724,102.057222,68.804724,100.963333,67.684683L81.666667,48.230920C80.546889,47.137103,80.572889,45.366205,81.666667,44.272443Z" transform="translate(0,0)" fill="rgb(40,40,40)" stroke="none" stroke-width="1"/></g><path id="ewvlo6v76n9q3" d="M158.333333,135L141.666667,135L141.666667,151.667273L147.500000,151.667273C148.880000,151.667273,150,152.604529,150,153.750682L150,157.917500C150,159.063653,148.880000,160.000909,147.500000,160.000909L19.166667,160.000909C17.786444,160.000909,16.666667,159.063653,16.666667,157.917500L16.666667,153.750682C16.666667,152.604529,17.786444,151.667273,19.166667,151.667273L25,151.667273L25,135L8.333333,135C3.723956,135,0,138.724024,0,143.333636L0,168.334545C0,172.944158,3.723956,176.668182,8.333333,176.668182L158.333333,176.668182C162.942778,176.668182,166.666667,172.944158,166.666667,168.334545L166.666667,143.333636C166.666667,138.724024,162.942778,135,158.333333,135Z" transform="matrix(1 0 0 1 66.66666666500001 1.95089500000000)" fill="rgb(40,40,40)" stroke="none" stroke-width="1"/></svg>