<svg viewBox="0 0 24 24" fill="none" xmlns="http://www.w3.org/2000/svg">
<path class="transparent" d="M5.034 11.117C4.08821 11.355 3.26188 11.9302 2.71025 12.7344C2.15863 13.5387 1.91968 14.5168 2.03831 15.4848C2.15693 16.4528 2.62496 17.3442 3.35447 17.9915C4.08397 18.6388 5.02473 18.9974 6 19H17C17.706 18.9995 18.404 18.8495 19.0479 18.5599C19.6917 18.2702 20.267 17.8475 20.7357 17.3195C21.2045 16.7915 21.5561 16.1702 21.7674 15.4965C21.9787 14.8229 22.045 14.1121 21.9618 13.4109C21.8786 12.7098 21.6479 12.0343 21.2848 11.4287C20.9217 10.8232 20.4345 10.3014 19.8552 9.89779C19.276 9.49412 18.6178 9.21772 17.924 9.08676C17.2302 8.9558 16.5166 8.97327 15.83 9.138L14.5 9.5" stroke="#050505" stroke-width="2" stroke-linecap="round" stroke-linejoin="round"/>
<path class="transparent" d="M15.83 9.13802C15.4882 7.78459 14.6446 6.61176 13.4701 5.85728C12.2957 5.1028 10.8783 4.82311 9.50526 5.07493C8.13224 5.32674 6.90634 6.09121 6.07606 7.21336C5.24579 8.33552 4.87326 9.73139 5.034 11.118C5.034 11.118 5.187 12 5.5 12.5" stroke="#050505" stroke-width="2" stroke-linecap="round" stroke-linejoin="round"/>
</svg>
