<svg viewBox="0 0 24 24" fill="none" xmlns="http://www.w3.org/2000/svg">
<path fill-rule="evenodd" clip-rule="evenodd" d="M5.25 9C3.621 9 2.25 10.371 2.25 12C2.25 13.629 3.621 15 5.25 15C6.0375 15 6.933 14.634 7.9875 13.9095C8.7525 13.3845 9.525 12.7245 10.329 12C9.525 11.2755 8.751 10.617 7.989 10.0905C6.9315 9.366 6.0375 9 5.25 9ZM12 10.476C11.115 9.6765 10.194 8.877 9.2625 8.2365C8.067 7.4145 6.7125 6.75 5.25 6.75C2.379 6.75 0 9.129 0 12C0 14.871 2.379 17.25 5.25 17.25C6.7125 17.25 8.067 16.584 9.2625 15.7635C10.194 15.123 11.115 14.3235 12 13.524C12.885 14.3235 13.806 15.123 14.7375 15.7635C15.933 16.584 17.2875 17.25 18.75 17.25C21.621 17.25 24 14.871 24 12C24 9.129 21.621 6.75 18.75 6.75C17.2875 6.75 15.933 7.4145 14.7375 8.2365C13.806 8.877 12.885 9.6765 12 10.476V10.476ZM13.671 12C14.475 12.7245 15.249 13.383 16.011 13.9095C17.067 14.634 17.961 15 18.75 15C20.379 15 21.75 13.629 21.75 12C21.75 10.371 20.379 9 18.75 9C17.9625 9 17.067 9.366 16.0125 10.0905C15.2475 10.6155 14.475 11.2755 13.671 12V12Z" fill="#050505"/>
</svg>
