<svg width="100" height="100" viewBox="0 0 100 100" fill="none" xmlns="http://www.w3.org/2000/svg">
<path d="M30.4744 75.9952C29.0822 70.028 22.801 65.1484 20.2228 61.9327C15.8081 56.4169 13.0413 49.7662 12.2413 42.7467C11.4412 35.7271 12.6403 28.6244 15.7006 22.2566C18.7608 15.8888 23.5577 10.515 29.5386 6.75428C35.5194 2.99355 42.441 0.998869 49.506 1C56.571 1.00113 63.4919 2.99803 69.4716 6.76068C75.4513 10.5233 80.2464 15.8986 83.3046 22.2674C86.3628 28.6362 87.5597 35.7393 86.7574 42.7586C85.955 49.7779 83.1862 56.4277 78.7697 61.9421C76.1915 65.153 69.9197 70.0327 68.5275 75.9952H30.4697H30.4744ZM68.2509 85.3702V90.0577C68.2509 92.5441 67.2632 94.9287 65.505 96.6868C63.7469 98.445 61.3623 99.4327 58.8759 99.4327H40.1259C37.6395 99.4327 35.255 98.445 33.4968 96.6868C31.7387 94.9287 30.7509 92.5441 30.7509 90.0577V85.3702H68.2509ZM54.1884 38.5187V19.7453L33.0947 47.8937H44.8134V66.6437L65.9072 38.5187H54.1884V38.5187Z" fill="#282828"/>
</svg>
