<svg width="100" height="86" viewBox="0 0 100 86" fill="none" xmlns="http://www.w3.org/2000/svg">
<path d="M57.1429 0C69.0476 0 79.1667 4.16667 87.5 12.5C95.8333 20.8333 100 30.9524 100 42.8571C100 54.7619 95.8333 64.881 87.5 73.2143C79.1667 81.5476 69.0476 85.7143 57.1429 85.7143C45.3869 85.7143 35.2679 81.5476 26.7857 73.2143L33.7054 66.2946C40.1042 72.8423 47.9167 76.1161 57.1429 76.1161C66.369 76.1161 74.2187 72.8795 80.692 66.4062C87.1652 59.933 90.4018 52.0833 90.4018 42.8571C90.4018 33.631 87.1652 25.7812 80.692 19.308C74.2187 12.8348 66.369 9.59821 57.1429 9.59821C47.9167 9.59821 40.067 12.8348 33.5937 19.308C27.1205 25.7812 23.8839 33.631 23.8839 42.8571H38.1696L18.75 62.0536L18.5268 61.3839L0 42.8571H14.2857C14.2857 30.9524 18.4524 20.8333 26.7857 12.5C35.119 4.16667 45.2381 0 57.1429 0ZM52.4554 23.8839H59.5982V43.9732L76.1161 54.0179L72.7679 59.8214L52.4554 47.5446V23.8839Z" fill="#282828"/>
</svg>
