<svg version="1.2" xmlns="http://www.w3.org/2000/svg"
 width="280.000000pt" height="280.000000pt" viewBox="0 0 280.000000 280.000000"
 preserveAspectRatio="xMidYMid meet" ZoomAndPan="disable" fill="#FFFFFF">
 <title>Train In Blocks</title>
<g transform="translate(0.000000,280.000000) scale(0.100000,-0.100000)"
fill="#000000" stroke="none">
<path d="M0 1400 l0 -1400 549 0 c513 0 549 1 553 18 2 9 4 389 4 845 -1 820
-1 827 19 828 11 0 387 2 835 3 448 2 821 4 828 4 9 2 12 120 12 552 l0 550
-1400 0 -1400 0 0 -1400z"/>
<path d="M1770 515 l0 -515 515 0 515 0 0 515 0 515 -515 0 -515 0 0 -515z"/>
</g>
</svg>
