<svg width="100" height="100" viewBox="0 0 100 100" fill="none" xmlns="http://www.w3.org/2000/svg">
<g id="community">
<g id="Person 1">
<path id="Vector" d="M34.6936 27.1815C33.2902 25.7745 31.3301 24.9998 29.1666 24.9998C26.9916 24.9998 25.025 25.7699 23.6281 27.1681C22.2161 28.5817 21.5281 30.5029 21.6896 32.5774C22.0098 36.6703 25.3639 39.9998 29.1666 39.9998C32.9693 39.9998 36.3176 36.671 36.6429 32.5788C36.8066 30.523 36.1143 28.6058 34.6936 27.1815Z" fill="#282828"/>
<path id="Vector_2" d="M39.7424 59.9999H18.5891C18.3123 60.0062 18.0381 59.9053 17.7865 59.7048C17.5349 59.5042 17.3123 59.209 17.1349 58.8406C16.7442 58.0312 16.5868 56.926 16.7034 55.8083C17.2106 50.9313 18.7935 46.8345 21.2814 43.9585C23.4916 41.4054 26.2915 40.0002 29.1658 40.0002C32.0401 40.0002 34.8399 41.4064 37.0502 43.9585C39.5381 46.8334 41.121 50.9302 41.6282 55.8073C41.7448 56.925 41.5873 58.0301 41.1967 58.8395C41.0193 59.2081 40.7967 59.5036 40.5451 59.7043C40.2936 59.905 40.0193 60.006 39.7424 59.9999Z" fill="#282828"/>
</g>
<g id="Person 2">
<path id="Vector_3" d="M59.6936 27.1815C58.2902 25.7745 56.3301 24.9998 54.1666 24.9998C51.9916 24.9998 50.025 25.7699 48.6281 27.1681C47.2161 28.5817 46.5281 30.5029 46.6896 32.5774C47.0098 36.6703 50.3639 39.9998 54.1666 39.9998C57.9693 39.9998 61.3176 36.671 61.6429 32.5788C61.8066 30.523 61.1143 28.6058 59.6936 27.1815Z" fill="#282828"/>
<path id="Vector_4" d="M64.7424 59.9999H43.5891C43.3123 60.0062 43.0381 59.9053 42.7865 59.7048C42.5349 59.5042 42.3123 59.209 42.1349 58.8406C41.7442 58.0312 41.5868 56.926 41.7034 55.8083C42.2106 50.9313 43.7935 46.8345 46.2814 43.9585C48.4916 41.4054 51.2915 40.0002 54.1658 40.0002C57.0401 40.0002 59.8399 41.4064 62.0502 43.9585C64.5381 46.8334 66.121 50.9302 66.6282 55.8073C66.7447 56.925 66.5873 58.0301 66.1967 58.8395C66.0193 59.2081 65.7967 59.5036 65.5451 59.7043C65.2936 59.905 65.0193 60.006 64.7424 59.9999Z" fill="#282828"/>
</g>
<g id="Person 3">
<path id="Vector_5" d="M84.6936 27.1815C83.2902 25.7745 81.3301 24.9998 79.1666 24.9998C76.9916 24.9998 75.025 25.7699 73.6281 27.1681C72.2161 28.5817 71.5281 30.5029 71.6896 32.5774C72.0098 36.6703 75.3639 39.9998 79.1666 39.9998C82.9693 39.9998 86.3176 36.671 86.6429 32.5788C86.8066 30.523 86.1143 28.6058 84.6936 27.1815Z" fill="#282828"/>
<path id="Vector_6" d="M89.7424 59.9999H68.5891C68.3123 60.0062 68.0381 59.9053 67.7865 59.7048C67.5349 59.5042 67.3123 59.209 67.1349 58.8406C66.7442 58.0312 66.5868 56.926 66.7034 55.8083C67.2106 50.9313 68.7935 46.8345 71.2814 43.9585C73.4916 41.4054 76.2915 40.0002 79.1658 40.0002C82.0401 40.0002 84.8399 41.4064 87.0502 43.9585C89.5381 46.8334 91.121 50.9302 91.6282 55.8073C91.7448 56.925 91.5873 58.0301 91.1967 58.8395C91.0193 59.2081 90.7967 59.5036 90.5451 59.7043C90.2936 59.905 90.0193 60.006 89.7424 59.9999Z" fill="#282828"/>
</g>
<g id="Person 4">
<path id="Vector_7" d="M43.0249 35.515C41.6215 34.1081 39.6614 33.3333 37.4979 33.3333C35.3229 33.3333 33.3563 34.1034 31.9594 35.5016C30.5474 36.9152 29.8594 38.8364 30.0209 40.911C30.3411 45.0039 33.6952 48.3333 37.4979 48.3333C41.3006 48.3333 44.6489 45.0045 44.9742 40.9123C45.1379 38.8565 44.4456 36.9394 43.0249 35.515Z" fill="#484848"/>
<path id="Vector_8" d="M48.0766 68.3335H26.9234C26.6465 68.3397 26.3723 68.2389 26.1207 68.0383C25.8692 67.8378 25.6465 67.5426 25.4691 67.1741C25.0785 66.3648 24.921 65.2596 25.0376 64.1419C25.5448 59.2648 27.1277 55.168 29.6156 52.292C31.8259 49.7389 34.6257 48.3337 37.5 48.3337C40.3743 48.3337 43.1741 49.74 45.3844 52.292C47.8723 55.167 49.4552 59.2638 49.9624 64.1408C50.079 65.2585 49.9215 66.3637 49.5309 67.1731C49.3535 67.5417 49.1309 67.8371 48.8794 68.0379C48.6278 68.2386 48.3536 68.3396 48.0766 68.3335Z" fill="#484848"/>
</g>
<g id="Person 10">
<path id="Vector_9" d="M20.0249 35.1815C18.6215 33.7745 16.6614 32.9998 14.4979 32.9998C12.3229 32.9998 10.3563 33.7699 8.9594 35.1681C7.54737 36.5817 6.85938 38.5029 7.02092 40.5774C7.34112 44.6703 10.6952 47.9998 14.4979 47.9998C18.3006 47.9998 21.6489 44.671 21.9742 40.5788C22.1379 38.523 21.4456 36.6058 20.0249 35.1815Z" fill="#484848"/>
<path id="Vector_10" d="M25.0766 67.9999H3.92337C3.64649 68.0062 3.37229 67.9053 3.12072 67.7048C2.86915 67.5042 2.64654 67.209 2.46908 66.8406C2.07847 66.0312 1.92102 64.926 2.0376 63.8083C2.5448 58.9313 4.12769 54.8345 6.6156 51.9585C8.82588 49.4054 11.6257 48.0002 14.5 48.0002C17.3743 48.0002 20.1741 49.4064 22.3844 51.9585C24.8723 54.8334 26.4552 58.9302 26.9624 63.8073C27.079 64.925 26.9215 66.0302 26.5309 66.8395C26.3535 67.2081 26.1309 67.5036 25.8794 67.7043C25.6278 67.905 25.3536 68.006 25.0766 67.9999Z" fill="#484848"/>
</g>
<g id="Person 5">
<path id="Vector_11" d="M68.0249 35.515C66.6215 34.1081 64.6614 33.3333 62.4979 33.3333C60.3229 33.3333 58.3563 34.1034 56.9594 35.5016C55.5474 36.9152 54.8594 38.8364 55.0209 40.911C55.3411 45.0039 58.6952 48.3333 62.4979 48.3333C66.3006 48.3333 69.6489 45.0045 69.9742 40.9123C70.1379 38.8565 69.4456 36.9394 68.0249 35.515Z" fill="#484848"/>
<path id="Vector_12" d="M73.0766 68.3335H51.9234C51.6465 68.3397 51.3723 68.2389 51.1207 68.0383C50.8692 67.8378 50.6465 67.5426 50.4691 67.1741C50.0785 66.3648 49.921 65.2596 50.0376 64.1419C50.5448 59.2648 52.1277 55.168 54.6156 52.292C56.8259 49.7389 59.6257 48.3337 62.5 48.3337C65.3743 48.3337 68.1741 49.74 70.3844 52.292C72.8723 55.167 74.4552 59.2638 74.9624 64.1408C75.079 65.2585 74.9215 66.3637 74.5309 67.1731C74.3535 67.5417 74.1309 67.8371 73.8794 68.0379C73.6278 68.2386 73.3536 68.3396 73.0766 68.3335Z" fill="#484848"/>
</g>
<g id="Person 6">
<path id="Vector_13" d="M93.0249 35.515C91.6215 34.1081 89.6614 33.3333 87.4979 33.3333C85.3229 33.3333 83.3563 34.1034 81.9594 35.5016C80.5474 36.9152 79.8594 38.8364 80.0209 40.911C80.3411 45.0039 83.6952 48.3333 87.4979 48.3333C91.3006 48.3333 94.6489 45.0045 94.9742 40.9123C95.1379 38.8565 94.4456 36.9394 93.0249 35.515Z" fill="#484848"/>
<path id="Vector_14" d="M98.0766 68.3335H76.9234C76.6465 68.3397 76.3723 68.2389 76.1207 68.0383C75.8692 67.8378 75.6465 67.5426 75.4691 67.1741C75.0785 66.3648 74.921 65.2596 75.0376 64.1419C75.5448 59.2648 77.1277 55.168 79.6156 52.292C81.8259 49.7389 84.6257 48.3337 87.5 48.3337C90.3743 48.3337 93.1741 49.74 95.3844 52.292C97.8723 55.167 99.4552 59.2638 99.9624 64.1408C100.079 65.2585 99.9215 66.3637 99.5309 67.1731C99.3535 67.5417 99.1309 67.8371 98.8794 68.0379C98.6278 68.2386 98.3536 68.3396 98.0766 68.3335Z" fill="#484848"/>
</g>
<g id="Person 7">
<path id="Vector_15" d="M34.6936 43.8479C33.2902 42.441 31.3301 41.6662 29.1666 41.6662C26.9916 41.6662 25.025 42.4363 23.6281 43.8345C22.2161 45.2481 21.5281 47.1693 21.6896 49.2439C22.0098 53.3367 25.3639 56.6662 29.1666 56.6662C32.9693 56.6662 36.3176 53.3374 36.6429 49.2452C36.8066 47.1894 36.1143 45.2722 34.6936 43.8479Z" fill="#686868"/>
<path id="Vector_16" d="M39.7424 76.6671H18.5891C18.3123 76.6733 18.0381 76.5725 17.7865 76.372C17.5349 76.1714 17.3123 75.8762 17.1349 75.5077C16.7442 74.6984 16.5868 73.5932 16.7034 72.4755C17.2106 67.5985 18.7935 63.5016 21.2814 60.6256C23.4916 58.0725 26.2915 56.6674 29.1658 56.6674C32.0401 56.6674 34.8399 58.0736 37.0502 60.6256C39.5381 63.5006 41.121 67.5974 41.6282 72.4744C41.7448 73.5921 41.5873 74.6973 41.1967 75.5067C41.0193 75.8753 40.7967 76.1708 40.5451 76.3715C40.2936 76.5722 40.0193 76.6732 39.7424 76.6671Z" fill="#686868"/>
</g>
<g id="Person 8">
<path id="Vector_17" d="M59.6936 43.8479C58.2902 42.441 56.3301 41.6662 54.1666 41.6662C51.9916 41.6662 50.025 42.4363 48.6281 43.8345C47.2161 45.2481 46.5281 47.1693 46.6896 49.2439C47.0098 53.3367 50.3639 56.6662 54.1666 56.6662C57.9693 56.6662 61.3176 53.3374 61.6429 49.2452C61.8066 47.1894 61.1143 45.2722 59.6936 43.8479Z" fill="#686868"/>
<path id="Vector_18" d="M64.7424 76.6671H43.5891C43.3123 76.6733 43.0381 76.5725 42.7865 76.372C42.5349 76.1714 42.3123 75.8762 42.1349 75.5077C41.7442 74.6984 41.5868 73.5932 41.7034 72.4755C42.2106 67.5985 43.7935 63.5016 46.2814 60.6256C48.4916 58.0725 51.2915 56.6674 54.1658 56.6674C57.0401 56.6674 59.8399 58.0736 62.0502 60.6256C64.5381 63.5006 66.121 67.5974 66.6282 72.4744C66.7447 73.5921 66.5873 74.6973 66.1967 75.5067C66.0193 75.8753 65.7967 76.1708 65.5451 76.3715C65.2936 76.5722 65.0193 76.6732 64.7424 76.6671Z" fill="#686868"/>
</g>
<g id="Person 9">
<path id="Vector_19" d="M84.6936 43.8479C83.2902 42.441 81.3301 41.6662 79.1666 41.6662C76.9916 41.6662 75.025 42.4363 73.6281 43.8345C72.2161 45.2481 71.5281 47.1693 71.6896 49.2439C72.0098 53.3367 75.3639 56.6662 79.1666 56.6662C82.9693 56.6662 86.3176 53.3374 86.6429 49.2452C86.8066 47.1894 86.1143 45.2722 84.6936 43.8479Z" fill="#686868"/>
<path id="Vector_20" d="M89.7424 76.6671H68.5891C68.3123 76.6733 68.0381 76.5725 67.7865 76.372C67.5349 76.1714 67.3123 75.8762 67.1349 75.5077C66.7442 74.6984 66.5868 73.5932 66.7034 72.4755C67.2106 67.5985 68.7935 63.5016 71.2814 60.6256C73.4916 58.0725 76.2915 56.6674 79.1658 56.6674C82.0401 56.6674 84.8399 58.0736 87.0502 60.6256C89.5381 63.5006 91.121 67.5974 91.6282 72.4744C91.7448 73.5921 91.5873 74.6973 91.1967 75.5067C91.0193 75.8753 90.7967 76.1708 90.5451 76.3715C90.2936 76.5722 90.0193 76.6732 89.7424 76.6671Z" fill="#686868"/>
</g>
</g>
</svg>
