<svg width="94" height="92" viewBox="0 0 94 92" fill="none" xmlns="http://www.w3.org/2000/svg">
<path d="M58.9812 70.3563C61.4078 67.9672 60.0984 62.4797 56.1344 56.1406C57.575 55.9156 58.9219 55.5719 59.9406 55.0453C63.6063 53.1531 66.0812 49.7047 67.9547 46.1375C69.9687 42.3109 71.3203 38.1047 73.9484 34.6203C74.3922 34.0312 74.8359 33.5031 75.2781 33.0063C80.9484 33.6859 85.475 34.9047 85.475 34.9047L87.2047 30.5094C85.0215 29.7259 82.783 29.1059 80.5078 28.6547C81.9016 27.8625 82.8109 27.6156 82.8109 27.6156L81.1719 23.1844C78.5437 24.2953 76.4109 25.9344 74.625 27.8969C67.95 27.5234 61.2281 28.8531 55.925 32.9656C51.9375 36.0594 49.2437 40.3484 46.7094 44.6391C44.4638 42.4354 42.0725 40.3855 39.5516 38.5031C40.0297 37.7172 40.5422 37.0109 41.0937 36.4656C44.4266 33.1844 48.8234 31.0859 51.7078 27.3313C57.7703 19.4469 53.3359 7.0875 48.3484 0.6875C47.4547 1.54844 45.9766 2.80312 44.8641 3.79375C50.1656 9.22344 53.8734 18.7297 49.7188 25.8328C47.3969 29.8031 43.1062 32.2937 40.1062 35.7047C39.5875 36.2969 39.1234 37.0469 38.7031 37.875C30.8578 32.2484 23.6578 29.9844 20.8047 32.7938C20.5214 33.0836 20.288 33.4183 20.1141 33.7844L20.1031 33.7734L20.0266 33.9969C19.9203 34.2391 19.8234 34.4906 19.7578 34.7656L0.125 91.3125L57.4094 71.2844L57.3938 71.2688C58.0094 71.0703 58.5516 70.7781 58.9812 70.3563ZM11.5203 84.0188L6.73906 81.7906L9.96563 72.4938L24.7641 79.3875L11.5203 84.0188V84.0188ZM38.0062 74.7578L13.1953 63.1969L16.4219 53.9016L34.9625 63.2078C23.8953 56.0047 19.6484 44.6031 19.6484 44.6031L20.7516 41.4266C22.7125 46.3875 27.0266 52.5656 32.9547 58.3969C38.9328 64.2812 45.2687 68.5437 50.3328 70.4484L38.0062 74.7578V74.7578ZM47.5359 45.4766C50.1266 41.7625 52.7969 38.0141 56.5094 35.3469C60.0437 32.8062 65.7812 32.3422 71.2203 32.6469C69.3828 35.8563 68.025 39.4172 66.8062 42.8375C65.3328 46.9781 63.3578 51.2719 59.5922 53.8109C58.5766 54.4953 57.1531 54.9953 55.6328 55.3656C53.5438 52.1641 50.8031 48.7797 47.5359 45.4766" fill="#282828"/>
<path d="M32.9889 30.375C34.5546 30.375 29.8608 25.6875 30.6452 21.5766C33.6514 21.3453 40.5233 22.7 36.5233 17.2063C41.0483 18.0032 43.3921 14.625 39.1202 11.4235C40.5421 11.5235 42.7514 8.84223 41.1655 8.50317C36.0842 7.42661 34.0952 10.175 37.3202 14.1391C33.9296 13.5079 31.1655 15.0844 33.7124 18.625C23.9217 17.4047 29.4921 30.375 32.9889 30.375Z" fill="#282828"/>
<path d="M66.6015 26.2088C68.0687 25.5463 65.5796 21.1697 64.7702 20.051C70.9624 19.3885 70.728 17.5432 66.8452 13.59C77.4015 13.9447 67.1718 7.94472 68.6062 5.56972C69.8484 3.51034 73.6593 5.66972 73.3062 4.52284C72.1155 0.686903 60.8218 3.28065 67.9687 10.4432C61.7311 10.565 61.1327 12.6041 65.7812 16.8307C57.6843 16.9197 64.2905 27.2494 66.6015 26.2088" fill="#282828"/>
<path d="M93.401 41.6624C90.9291 42.3546 90.5479 42.0952 90.8776 44.5562C85.1682 41.928 79.1276 38.2733 82.7932 47.9562C76.3088 44.0952 76.6322 47.4765 75.4197 53.0406C73.8416 51.8109 71.5994 48.5702 71.5994 48.5702L69.2244 50.5874C69.2244 50.5874 73.576 56.7249 75.7244 56.3765C77.6135 56.0718 78.6416 52.5015 78.7463 49.3546C84.7619 51.8937 87.6416 52.2327 84.8901 44.8077C89.6994 47.5093 95.5963 49.8921 93.401 41.6624" fill="#282828"/>
<path d="M6.45265 13.8711L10.8714 18.2914L6.45265 22.7101L2.03234 18.2914L6.45265 13.8711Z" fill="#282828"/>
<path d="M17.0376 32.2472L12.6157 36.6659L8.19538 32.2441L12.6173 27.8237L17.0376 32.2472Z" fill="#282828"/>
<path d="M23.9072 6.9375L28.3259 11.3563L23.9056 15.7781L19.4869 11.3563L23.9072 6.9375Z" fill="#282828"/>
<path d="M72.0167 68.6331L67.5948 64.2128L72.0135 59.7909L76.4354 64.2112L72.0167 68.6331Z" fill="#282828"/>
<path d="M62.164 83.7881L57.7452 79.3693L62.164 74.949L66.5843 79.3693L62.164 83.7881Z" fill="#282828"/>
<path d="M81.5519 87.2824L77.13 82.8621L81.5472 78.4402L85.9691 82.8605L81.5519 87.2824Z" fill="#282828"/>
<path d="M85.9708 67.1498L81.552 62.7295L85.9708 58.3108L90.3895 62.7295L85.9708 67.1498Z" fill="#282828"/>
<path d="M78.5932 11.625L83.0119 16.0438L78.5916 20.4641L74.1729 16.0438L78.5932 11.625Z" fill="#282828"/>
</svg>
