<svg width="100" height="100" viewBox="0 0 100 100" fill="none" xmlns="http://www.w3.org/2000/svg">
<path d="M35.0806 92.1265C35.4619 92.5399 35.6647 93.0871 35.6448 93.6492C35.625 94.2112 35.3841 94.7427 34.9746 95.1282L30.3702 99.4337C29.959 99.8157 29.4131 100.019 28.8522 99.9986C28.2914 99.9783 27.7615 99.7363 27.379 99.3256L0.564586 70.4273C0.183535 70.0137 -0.0188594 69.4663 0.00138474 68.9042C0.0216289 68.3422 0.262876 67.8108 0.6727 67.4256L5.28345 63.1265C5.4869 62.9371 5.72569 62.7896 5.98615 62.6925C6.24661 62.5954 6.52365 62.5506 6.80144 62.5607C7.07922 62.5707 7.3523 62.6354 7.60508 62.751C7.85785 62.8667 8.08537 63.031 8.27461 63.2346L35.0806 92.1265ZM69.2955 37.7514C69.6766 38.1651 69.879 38.7125 69.8587 39.2745C69.8385 39.8366 69.5972 40.368 69.1874 40.7532L40.2086 67.8241C39.7974 68.2061 39.2515 68.4093 38.6906 68.389C38.1298 68.3687 37.5999 68.1267 37.2174 67.716L30.3002 60.2519C29.9192 59.8382 29.7168 59.2909 29.737 58.7288C29.7573 58.1667 29.9985 57.6353 30.4083 57.2501L59.3808 30.1792C59.5841 29.9899 59.8227 29.8425 60.083 29.7454C60.3433 29.6484 60.6202 29.6036 60.8978 29.6136C61.1754 29.6237 61.4483 29.6883 61.7009 29.8039C61.9535 29.9195 62.1808 30.0838 62.3699 30.2873L69.2955 37.7514V37.7514ZM44.9402 82.9113C45.733 83.7657 45.6842 85.116 44.8321 85.9131L40.2213 90.2165C40.0178 90.4059 39.7791 90.5533 39.5186 90.6504C39.2581 90.7475 38.9811 90.7923 38.7033 90.7822C38.4255 90.7722 38.1524 90.7075 37.8997 90.5919C37.6469 90.4763 37.4194 90.3119 37.2301 90.1083L10.4305 61.2101C10.0492 60.7967 9.84645 60.2495 9.8663 59.6874C9.88614 59.1253 10.127 58.5938 10.5365 58.2083L15.1388 53.9071C15.55 53.5251 16.0959 53.3219 16.6568 53.3422C17.2176 53.3625 17.7475 53.6045 18.13 54.0152L44.9402 82.9113ZM89.5913 38.7881C89.9721 39.202 90.1741 39.7495 90.1535 40.3116C90.1329 40.8737 89.8912 41.4049 89.4811 41.7898L84.8725 46.0932C84.4612 46.4756 83.9151 46.6792 83.3539 46.6593C82.7927 46.6394 82.2623 46.3977 81.8792 45.9872L55.0753 17.0953C54.6935 16.6821 54.4904 16.1348 54.5102 15.5726C54.5301 15.0103 54.7713 14.4787 55.1813 14.0935L59.8027 9.77955C60.006 9.59021 60.2446 9.4428 60.5049 9.34576C60.7651 9.24871 61.042 9.20392 61.3196 9.21397C61.5972 9.22401 61.8701 9.28868 62.1227 9.40428C62.3753 9.51987 62.6027 9.68413 62.7917 9.88766L89.5913 38.7881ZM99.4361 29.5878C99.8167 30.002 100.019 30.5496 99.9986 31.1119C99.9784 31.6741 99.7374 32.2058 99.328 32.5916L94.7278 36.8929C94.5247 37.0823 94.2862 37.2299 94.026 37.3271C93.7658 37.4244 93.4889 37.4693 93.2113 37.4595C92.9337 37.4497 92.6608 37.3852 92.4081 37.2698C92.1554 37.1544 91.928 36.9903 91.7388 36.7869L64.9392 7.88225C64.5582 7.46823 64.3558 6.92081 64.3756 6.35856C64.3954 5.79631 64.636 5.26451 65.0452 4.87838L69.6496 0.568649C69.8524 0.378985 70.0907 0.231236 70.3507 0.133881C70.6108 0.0365251 70.8875 -0.008521 71.165 0.00132689C71.4425 0.0111748 71.7154 0.0757228 71.9679 0.191267C72.2204 0.306812 72.4476 0.471079 72.6365 0.674644L99.4361 29.5878V29.5878Z" fill="#282828"/>
</svg>
