<svg width="100" height="71" viewBox="0 0 100 71" fill="none" xmlns="http://www.w3.org/2000/svg">
<path d="M30.4476 35.5222C40.5714 35.5222 48.2087 27.8849 48.2087 17.7611C48.2087 7.63727 40.5714 0 30.4476 0C20.3238 0 12.6865 7.63727 12.6865 17.7611C12.6865 27.8849 20.3238 35.5222 30.4476 35.5222ZM35.5222 40.3329H25.373C11.3823 40.3329 0 51.7152 0 65.7059V70.7805H60.8952V65.7059C60.8952 51.7152 49.5128 40.3329 35.5222 40.3329ZM92.8347 16.4417L71.0139 38.2219L64.4575 31.6655L57.2821 38.841L71.0139 52.5627L100 23.6273L92.8347 16.4417Z" fill="#282828"/>
</svg>
