<svg fill="#000000" xmlns="http://www.w3.org/2000/svg" viewBox="0 0 30 30" width="100px" height="100px"><path d="M 5 5 C 3.3550302 5 2 6.3550302 2 8 L 2 21 C 2 21.768584 2.3041249 22.466647 2.7871094 23 L 0 23 C 0 24.657 1.343 26 3 26 L 27 26 C 28.657 26 30 24.657 30 23 L 27.212891 23 C 27.695875 22.466647 28 21.768584 28 21 L 28 8 C 28 6.3550302 26.64497 5 25 5 L 5 5 z M 5 7 L 25 7 C 25.56503 7 26 7.4349698 26 8 L 26 21 C 26 21.56503 25.56503 22 25 22 L 5 22 C 4.4349698 22 4 21.56503 4 21 L 4 8 C 4 7.4349698 4.4349698 7 5 7 z"/></svg>